<svg xmlns="http://www.w3.org/2000/svg" xmlns:xlink="http://www.w3.org/1999/xlink" width="1200" zoomAndPan="magnify" viewBox="0 0 900 359.999987" height="480" preserveAspectRatio="xMidYMid meet" version="1.0"><defs><filter x="0%" y="0%" width="100%" height="100%" id="bf37fd7b72"><feColorMatrix values="0 0 0 0 1 0 0 0 0 1 0 0 0 0 1 0 0 0 1 0" color-interpolation-filters="sRGB"/></filter><g/><clipPath id="d233ec2b87"><path d="M 517 80.492188 L 520 80.492188 L 520 108 L 517 108 Z M 517 80.492188 " clip-rule="nonzero"/></clipPath><clipPath id="2b1878bc84"><path d="M 440 105 L 595.996094 105 L 595.996094 108 L 440 108 Z M 440 105 " clip-rule="nonzero"/></clipPath><clipPath id="a54cd041cb"><path d="M 594 105 L 595.996094 105 L 595.996094 138.992188 L 594 138.992188 Z M 594 105 " clip-rule="nonzero"/></clipPath><clipPath id="126c3a03f9"><path d="M 440 105 L 442 105 L 442 138.992188 L 440 138.992188 Z M 440 105 " clip-rule="nonzero"/></clipPath><clipPath id="f67f4d8da2"><path d="M 0 83.753906 L 900 83.753906 L 900 272.003906 L 0 272.003906 Z M 0 83.753906 " clip-rule="nonzero"/></clipPath><clipPath id="8a422990f6"><path d="M 0 0.753906 L 900 0.753906 L 900 189.003906 L 0 189.003906 Z M 0 0.753906 " clip-rule="nonzero"/></clipPath><clipPath id="f6786a3875"><path d="M 327.492188 2.253906 L 487.992188 2.253906 L 487.992188 187.5 L 327.492188 187.5 Z M 327.492188 2.253906 " clip-rule="nonzero"/></clipPath><linearGradient x1="382.19199" gradientTransform="matrix(0.748499, 0, 0, 0.748602, 41.421693, 70.547605)" y1="32.5" x2="596.62098" gradientUnits="userSpaceOnUse" y2="32.5" id="45161de5e3"><stop stop-opacity="1" stop-color="rgb(100%, 39.99939%, 76.858521%)" offset="0"/><stop stop-opacity="1" stop-color="rgb(100%, 39.99939%, 76.858521%)" offset="0.25"/><stop stop-opacity="1" stop-color="rgb(100%, 39.99939%, 76.858521%)" offset="0.375"/><stop stop-opacity="1" stop-color="rgb(100%, 39.99939%, 76.858521%)" offset="0.40625"/><stop stop-opacity="1" stop-color="rgb(100%, 39.99939%, 76.858521%)" offset="0.421875"/><stop stop-opacity="1" stop-color="rgb(100%, 39.99939%, 76.858521%)" offset="0.429688"/><stop stop-opacity="1" stop-color="rgb(98.945618%, 40.937805%, 75.967407%)" offset="0.433594"/><stop stop-opacity="1" stop-color="rgb(97.891235%, 41.877747%, 75.07782%)" offset="0.4375"/><stop stop-opacity="1" stop-color="rgb(94.86084%, 44.578552%, 72.517395%)" offset="0.441406"/><stop stop-opacity="1" stop-color="rgb(91.830444%, 47.280884%, 69.958496%)" offset="0.445313"/><stop stop-opacity="1" stop-color="rgb(88.800049%, 49.981689%, 67.398071%)" offset="0.449219"/><stop stop-opacity="1" stop-color="rgb(85.771179%, 52.684021%, 64.839172%)" offset="0.453125"/><stop stop-opacity="1" stop-color="rgb(82.740784%, 55.384827%, 62.278748%)" offset="0.457031"/><stop stop-opacity="1" stop-color="rgb(79.710388%, 58.085632%, 59.718323%)" offset="0.460938"/><stop stop-opacity="1" stop-color="rgb(76.679993%, 60.786438%, 57.157898%)" offset="0.464844"/><stop stop-opacity="1" stop-color="rgb(73.649597%, 63.48877%, 54.598999%)" offset="0.46875"/><stop stop-opacity="1" stop-color="rgb(70.619202%, 66.189575%, 52.038574%)" offset="0.472656"/><stop stop-opacity="1" stop-color="rgb(67.590332%, 68.891907%, 49.479675%)" offset="0.476563"/><stop stop-opacity="1" stop-color="rgb(64.559937%, 71.592712%, 46.91925%)" offset="0.480469"/><stop stop-opacity="1" stop-color="rgb(61.529541%, 74.293518%, 44.358826%)" offset="0.484375"/><stop stop-opacity="1" stop-color="rgb(58.499146%, 76.994324%, 41.798401%)" offset="0.488281"/><stop stop-opacity="1" stop-color="rgb(55.470276%, 79.696655%, 39.239502%)" offset="0.492188"/><stop stop-opacity="1" stop-color="rgb(52.43988%, 82.397461%, 36.679077%)" offset="0.496094"/><stop stop-opacity="1" stop-color="rgb(49.409485%, 85.099792%, 34.118652%)" offset="0.5"/><stop stop-opacity="1" stop-color="rgb(49.409485%, 85.099792%, 34.118652%)" offset="1"/></linearGradient><clipPath id="1bfab36d2c"><rect x="0" width="900" y="0" height="190"/></clipPath><clipPath id="0d812992f1"><path d="M 0 0.753906 L 900 0.753906 L 900 189.003906 L 0 189.003906 Z M 0 0.753906 " clip-rule="nonzero"/></clipPath><clipPath id="7d040742c4"><rect x="0" width="900" y="0" height="190"/></clipPath><clipPath id="297a1d2a3c"><rect x="0" width="900" y="0" height="190"/></clipPath><mask id="f56aa53da6"><g filter="url(#bf37fd7b72)"><g><g clip-path="url(#297a1d2a3c)"><g clip-path="url(#0d812992f1)"><g><g clip-path="url(#7d040742c4)"><g fill="#000000" fill-opacity="1"><g transform="translate(397.558583, 105.752164)"><g><path d="M 9.90625 -24.453125 C 11.71875 -24.453125 13.242188 -24.179688 14.484375 -23.640625 C 15.722656 -23.097656 16.734375 -22.351562 17.515625 -21.40625 C 18.304688 -20.46875 18.910156 -19.375 19.328125 -18.125 C 19.753906 -16.882812 20.050781 -15.566406 20.21875 -14.171875 C 20.382812 -12.785156 20.46875 -11.375 20.46875 -9.9375 C 20.46875 -7.007812 20.328125 -4.570312 20.046875 -2.625 C 19.773438 -0.6875 19.269531 0.757812 18.53125 1.71875 C 17.800781 2.675781 16.734375 3.15625 15.328125 3.15625 C 14.609375 3.15625 13.984375 2.976562 13.453125 2.625 C 12.929688 2.28125 12.5 1.84375 12.15625 1.3125 C 11.820312 0.789062 11.578125 0.25 11.421875 -0.3125 C 11.273438 -0.882812 11.207031 -1.378906 11.21875 -1.796875 L 11.078125 -1.796875 C 10.867188 -1.265625 10.566406 -0.738281 10.171875 -0.21875 C 9.785156 0.300781 9.273438 0.734375 8.640625 1.078125 C 8.015625 1.421875 7.238281 1.59375 6.3125 1.59375 C 5.039062 1.59375 4.015625 1.25 3.234375 0.5625 C 2.460938 -0.125 1.898438 -1.070312 1.546875 -2.28125 C 1.203125 -3.5 1.03125 -4.875 1.03125 -6.40625 C 1.03125 -9.445312 1.632812 -11.710938 2.84375 -13.203125 C 4.0625 -14.691406 5.738281 -15.4375 7.875 -15.4375 C 8.695312 -15.4375 9.476562 -15.347656 10.21875 -15.171875 C 10.96875 -14.992188 11.832031 -14.644531 12.8125 -14.125 L 12.8125 -3.796875 C 12.8125 -2.535156 12.921875 -1.578125 13.140625 -0.921875 C 13.359375 -0.265625 13.65625 0.179688 14.03125 0.421875 C 14.40625 0.671875 14.820312 0.796875 15.28125 0.796875 C 15.820312 0.796875 16.242188 0.523438 16.546875 -0.015625 C 16.847656 -0.566406 17.0625 -1.332031 17.1875 -2.3125 C 17.320312 -3.289062 17.398438 -4.425781 17.421875 -5.71875 C 17.441406 -7.019531 17.453125 -8.414062 17.453125 -9.90625 C 17.453125 -11.570312 17.359375 -13.128906 17.171875 -14.578125 C 16.992188 -16.035156 16.640625 -17.3125 16.109375 -18.40625 C 15.585938 -19.5 14.832031 -20.351562 13.84375 -20.96875 C 12.851562 -21.582031 11.550781 -21.890625 9.9375 -21.890625 C 8.8125 -21.890625 7.582031 -21.679688 6.25 -21.265625 C 4.914062 -20.859375 3.503906 -20 2.015625 -18.6875 L 0.328125 -20.640625 C 1.890625 -22.003906 3.488281 -22.976562 5.125 -23.5625 C 6.757812 -24.15625 8.351562 -24.453125 9.90625 -24.453125 Z M 8.015625 -13.265625 C 6.421875 -13.265625 5.332031 -12.6875 4.75 -11.53125 C 4.164062 -10.375 3.875 -8.664062 3.875 -6.40625 C 3.875 -5.269531 3.957031 -4.265625 4.125 -3.390625 C 4.300781 -2.523438 4.59375 -1.84375 5 -1.34375 C 5.40625 -0.851562 5.957031 -0.609375 6.65625 -0.609375 C 7.46875 -0.609375 8.109375 -0.796875 8.578125 -1.171875 C 9.054688 -1.546875 9.421875 -1.972656 9.671875 -2.453125 C 9.921875 -2.941406 10.117188 -3.351562 10.265625 -3.6875 L 10.265625 -12.734375 C 9.578125 -13.085938 8.828125 -13.265625 8.015625 -13.265625 Z M 8.015625 -13.265625 "/></g></g></g></g></g></g></g></g></g></mask><clipPath id="f245657618"><path d="M 327.492188 2.253906 L 487.992188 2.253906 L 487.992188 187.5 L 327.492188 187.5 Z M 327.492188 2.253906 " clip-rule="nonzero"/></clipPath><clipPath id="0aa53f521c"><rect x="0" width="900" y="0" height="190"/></clipPath><clipPath id="570a83b934"><rect x="0" width="900" y="0" height="190"/></clipPath><clipPath id="54fd431d55"><path d="M 0 0.753906 L 900 0.753906 L 900 189.003906 L 0 189.003906 Z M 0 0.753906 " clip-rule="nonzero"/></clipPath><clipPath id="6f5a26d6d1"><path d="M 348.496094 2.253906 L 865.988281 2.253906 L 865.988281 187.503906 L 348.496094 187.503906 Z M 348.496094 2.253906 " clip-rule="nonzero"/></clipPath><linearGradient x1="410.16" gradientTransform="matrix(0.750149, 0, 0, 0.748606, 40.815542, 70.547473)" y1="32.5" x2="1100.01095" gradientUnits="userSpaceOnUse" y2="32.5" id="36721c1a05"><stop stop-opacity="1" stop-color="rgb(49.409485%, 85.099792%, 34.118652%)" offset="0"/><stop stop-opacity="1" stop-color="rgb(49.409485%, 85.099792%, 34.118652%)" offset="0.5"/><stop stop-opacity="1" stop-color="rgb(49.409485%, 85.099792%, 34.118652%)" offset="0.5625"/><stop stop-opacity="1" stop-color="rgb(49.409485%, 85.099792%, 34.118652%)" offset="0.570312"/><stop stop-opacity="1" stop-color="rgb(48.61908%, 84.925842%, 35.06012%)" offset="0.574219"/><stop stop-opacity="1" stop-color="rgb(47.8302%, 84.753418%, 36.003113%)" offset="0.578125"/><stop stop-opacity="1" stop-color="rgb(46.633911%, 84.489441%, 37.42981%)" offset="0.582031"/><stop stop-opacity="1" stop-color="rgb(45.437622%, 84.22699%, 38.856506%)" offset="0.585938"/><stop stop-opacity="1" stop-color="rgb(44.241333%, 83.964539%, 40.283203%)" offset="0.589844"/><stop stop-opacity="1" stop-color="rgb(43.045044%, 83.702087%, 41.711426%)" offset="0.59375"/><stop stop-opacity="1" stop-color="rgb(41.848755%, 83.439636%, 43.138123%)" offset="0.597656"/><stop stop-opacity="1" stop-color="rgb(40.652466%, 83.177185%, 44.566345%)" offset="0.601562"/><stop stop-opacity="1" stop-color="rgb(39.456177%, 82.914734%, 45.993042%)" offset="0.605469"/><stop stop-opacity="1" stop-color="rgb(38.259888%, 82.652283%, 47.421265%)" offset="0.609375"/><stop stop-opacity="1" stop-color="rgb(37.062073%, 82.389832%, 48.847961%)" offset="0.613281"/><stop stop-opacity="1" stop-color="rgb(35.865784%, 82.12738%, 50.276184%)" offset="0.617187"/><stop stop-opacity="1" stop-color="rgb(34.669495%, 81.864929%, 51.702881%)" offset="0.621094"/><stop stop-opacity="1" stop-color="rgb(33.473206%, 81.602478%, 53.131104%)" offset="0.625"/><stop stop-opacity="1" stop-color="rgb(32.276917%, 81.340027%, 54.5578%)" offset="0.628906"/><stop stop-opacity="1" stop-color="rgb(31.080627%, 81.077576%, 55.986023%)" offset="0.632812"/><stop stop-opacity="1" stop-color="rgb(29.884338%, 80.813599%, 57.41272%)" offset="0.636719"/><stop stop-opacity="1" stop-color="rgb(28.688049%, 80.551147%, 58.840942%)" offset="0.640625"/><stop stop-opacity="1" stop-color="rgb(27.49176%, 80.288696%, 60.267639%)" offset="0.644531"/><stop stop-opacity="1" stop-color="rgb(26.295471%, 80.026245%, 61.695862%)" offset="0.648437"/><stop stop-opacity="1" stop-color="rgb(25.099182%, 79.763794%, 63.122559%)" offset="0.652344"/><stop stop-opacity="1" stop-color="rgb(23.902893%, 79.501343%, 64.550781%)" offset="0.65625"/><stop stop-opacity="1" stop-color="rgb(22.705078%, 79.238892%, 65.977478%)" offset="0.660156"/><stop stop-opacity="1" stop-color="rgb(21.508789%, 78.97644%, 67.405701%)" offset="0.664062"/><stop stop-opacity="1" stop-color="rgb(20.3125%, 78.713989%, 68.832397%)" offset="0.667969"/><stop stop-opacity="1" stop-color="rgb(19.116211%, 78.451538%, 70.26062%)" offset="0.671875"/><stop stop-opacity="1" stop-color="rgb(17.919922%, 78.189087%, 71.687317%)" offset="0.675781"/><stop stop-opacity="1" stop-color="rgb(16.723633%, 77.926636%, 73.11554%)" offset="0.679687"/><stop stop-opacity="1" stop-color="rgb(15.527344%, 77.662659%, 74.542236%)" offset="0.683594"/><stop stop-opacity="1" stop-color="rgb(14.331055%, 77.400208%, 75.970459%)" offset="0.6875"/><stop stop-opacity="1" stop-color="rgb(13.134766%, 77.137756%, 77.397156%)" offset="0.691406"/><stop stop-opacity="1" stop-color="rgb(11.938477%, 76.875305%, 78.825378%)" offset="0.695312"/><stop stop-opacity="1" stop-color="rgb(10.740662%, 76.612854%, 80.252075%)" offset="0.699219"/><stop stop-opacity="1" stop-color="rgb(9.544373%, 76.350403%, 81.680298%)" offset="0.703125"/><stop stop-opacity="1" stop-color="rgb(8.348083%, 76.087952%, 83.106995%)" offset="0.707031"/><stop stop-opacity="1" stop-color="rgb(7.151794%, 75.8255%, 84.535217%)" offset="0.710938"/><stop stop-opacity="1" stop-color="rgb(5.955505%, 75.563049%, 85.961914%)" offset="0.714844"/><stop stop-opacity="1" stop-color="rgb(4.759216%, 75.300598%, 87.390137%)" offset="0.71875"/><stop stop-opacity="1" stop-color="rgb(4.733276%, 75.294495%, 87.419128%)" offset="0.75"/><stop stop-opacity="1" stop-color="rgb(4.708862%, 75.289917%, 87.449646%)" offset="1"/></linearGradient><clipPath id="c8b9585934"><rect x="0" width="900" y="0" height="190"/></clipPath><clipPath id="5276ec37ee"><path d="M 0 0.753906 L 900 0.753906 L 900 189.003906 L 0 189.003906 Z M 0 0.753906 " clip-rule="nonzero"/></clipPath><clipPath id="0bf5d806b2"><rect x="0" width="900" y="0" height="190"/></clipPath><clipPath id="3771e9e175"><rect x="0" width="900" y="0" height="190"/></clipPath><mask id="c248f0b1b3"><g filter="url(#bf37fd7b72)"><g><g clip-path="url(#3771e9e175)"><g clip-path="url(#5276ec37ee)"><g><g clip-path="url(#0bf5d806b2)"><g fill="#000000" fill-opacity="1"><g transform="translate(418.535143, 105.752164)"><g><path d="M 18.75 -6.65625 C 18.75 -5.28125 18.40625 -4.054688 17.71875 -2.984375 C 17.03125 -1.921875 16.035156 -1.085938 14.734375 -0.484375 C 13.429688 0.109375 11.84375 0.40625 9.96875 0.40625 C 8.207031 0.40625 6.613281 0.140625 5.1875 -0.390625 C 3.757812 -0.929688 2.535156 -1.691406 1.515625 -2.671875 L 3.328125 -4.703125 C 4.160156 -3.921875 5.117188 -3.300781 6.203125 -2.84375 C 7.285156 -2.382812 8.554688 -2.15625 10.015625 -2.15625 C 10.992188 -2.15625 11.90625 -2.3125 12.75 -2.625 C 13.601562 -2.945312 14.289062 -3.4375 14.8125 -4.09375 C 15.34375 -4.75 15.609375 -5.585938 15.609375 -6.609375 C 15.609375 -7.390625 15.457031 -8.050781 15.15625 -8.59375 C 14.851562 -9.144531 14.316406 -9.632812 13.546875 -10.0625 C 12.773438 -10.488281 11.703125 -10.90625 10.328125 -11.3125 C 8.742188 -11.769531 7.367188 -12.289062 6.203125 -12.875 C 5.046875 -13.46875 4.148438 -14.195312 3.515625 -15.0625 C 2.878906 -15.925781 2.5625 -16.992188 2.5625 -18.265625 C 2.5625 -19.460938 2.894531 -20.523438 3.5625 -21.453125 C 4.226562 -22.390625 5.144531 -23.125 6.3125 -23.65625 C 7.488281 -24.1875 8.835938 -24.453125 10.359375 -24.453125 C 12.023438 -24.453125 13.472656 -24.210938 14.703125 -23.734375 C 15.929688 -23.265625 17.046875 -22.585938 18.046875 -21.703125 L 16.265625 -19.734375 C 15.410156 -20.503906 14.484375 -21.0625 13.484375 -21.40625 C 12.492188 -21.75 11.488281 -21.921875 10.46875 -21.921875 C 9.59375 -21.921875 8.789062 -21.785156 8.0625 -21.515625 C 7.332031 -21.253906 6.75 -20.863281 6.3125 -20.34375 C 5.875 -19.832031 5.65625 -19.175781 5.65625 -18.375 C 5.65625 -17.6875 5.84375 -17.085938 6.21875 -16.578125 C 6.59375 -16.078125 7.222656 -15.617188 8.109375 -15.203125 C 8.992188 -14.796875 10.203125 -14.363281 11.734375 -13.90625 C 12.972656 -13.550781 14.125 -13.101562 15.1875 -12.5625 C 16.257812 -12.019531 17.117188 -11.285156 17.765625 -10.359375 C 18.421875 -9.429688 18.75 -8.195312 18.75 -6.65625 Z M 18.75 -6.65625 "/></g></g></g><g fill="#000000" fill-opacity="1"><g transform="translate(439.50937, 105.752164)"><g><path d="M 11.9375 -21.46875 L 11.9375 0 L 8.90625 0 L 8.90625 -21.46875 L 1.390625 -21.46875 L 1.390625 -24.0625 L 19.5625 -24.0625 L 19.234375 -21.46875 Z M 11.9375 -21.46875 "/></g></g></g><g fill="#000000" fill-opacity="1"><g transform="translate(460.483596, 105.752164)"><g><path d="M 17.375 -24.0625 L 17.375 -21.640625 L 12.03125 -21.640625 L 12.03125 -2.421875 L 17.375 -2.421875 L 17.375 0 L 3.59375 0 L 3.59375 -2.421875 L 8.953125 -2.421875 L 8.953125 -21.640625 L 3.59375 -21.640625 L 3.59375 -24.0625 Z M 17.375 -24.0625 "/></g></g></g><g fill="#000000" fill-opacity="1"><g transform="translate(481.457822, 105.752164)"><g><path d="M 12.515625 -24.453125 C 14.085938 -24.453125 15.398438 -24.253906 16.453125 -23.859375 C 17.515625 -23.460938 18.523438 -22.878906 19.484375 -22.109375 L 17.796875 -20.140625 C 17.035156 -20.773438 16.234375 -21.226562 15.390625 -21.5 C 14.546875 -21.78125 13.660156 -21.921875 12.734375 -21.921875 C 11.421875 -21.921875 10.203125 -21.609375 9.078125 -20.984375 C 7.960938 -20.359375 7.0625 -19.328125 6.375 -17.890625 C 5.695312 -16.453125 5.359375 -14.503906 5.359375 -12.046875 C 5.359375 -9.648438 5.679688 -7.726562 6.328125 -6.28125 C 6.984375 -4.84375 7.863281 -3.800781 8.96875 -3.15625 C 10.070312 -2.519531 11.304688 -2.203125 12.671875 -2.203125 C 14.023438 -2.203125 15.132812 -2.40625 16 -2.8125 C 16.863281 -3.21875 17.617188 -3.6875 18.265625 -4.21875 L 19.828125 -2.21875 C 19.097656 -1.507812 18.144531 -0.894531 16.96875 -0.375 C 15.789062 0.144531 14.347656 0.40625 12.640625 0.40625 C 10.691406 0.40625 8.925781 -0.0703125 7.34375 -1.03125 C 5.769531 -1.988281 4.519531 -3.390625 3.59375 -5.234375 C 2.675781 -7.078125 2.21875 -9.347656 2.21875 -12.046875 C 2.21875 -14.742188 2.6875 -17.015625 3.625 -18.859375 C 4.5625 -20.703125 5.8125 -22.09375 7.375 -23.03125 C 8.945312 -23.976562 10.660156 -24.453125 12.515625 -24.453125 Z M 12.515625 -24.453125 "/></g></g></g><g fill="#000000" fill-opacity="1"><g transform="translate(502.432048, 105.752164)"><g><path d="M 6.6875 0 L 3.671875 0 L 3.671875 -24.0625 L 6.6875 -24.0625 Z M 6.875 -12.84375 L 16.34375 -24.0625 L 19.828125 -24.0625 L 10.4375 -13.03125 L 20.5 0 L 16.71875 0 Z M 6.875 -12.84375 "/></g></g></g><g fill="#000000" fill-opacity="1"><g transform="translate(523.406274, 105.752164)"><g><path d="M 3.515625 0 L 3.515625 -18.40625 L 6.015625 -18.40625 L 6.234375 -15.84375 C 6.984375 -16.789062 7.921875 -17.515625 9.046875 -18.015625 C 10.171875 -18.523438 11.265625 -18.78125 12.328125 -18.78125 C 14.128906 -18.78125 15.441406 -18.300781 16.265625 -17.34375 C 17.085938 -16.394531 17.5 -15.070312 17.5 -13.375 L 17.5 0 L 14.5625 0 L 14.5625 -11.203125 C 14.5625 -12.460938 14.488281 -13.476562 14.34375 -14.25 C 14.207031 -15.03125 13.914062 -15.597656 13.46875 -15.953125 C 13.03125 -16.304688 12.34375 -16.484375 11.40625 -16.484375 C 10.6875 -16.484375 10.007812 -16.320312 9.375 -16 C 8.738281 -15.6875 8.171875 -15.296875 7.671875 -14.828125 C 7.179688 -14.359375 6.773438 -13.882812 6.453125 -13.40625 L 6.453125 0 Z M 3.515625 0 "/></g></g></g><g fill="#000000" fill-opacity="1"><g transform="translate(544.3805, 105.752164)"><g><path d="M 10.515625 -18.78125 C 12.253906 -18.78125 13.707031 -18.382812 14.875 -17.59375 C 16.050781 -16.8125 16.929688 -15.703125 17.515625 -14.265625 C 18.109375 -12.835938 18.40625 -11.148438 18.40625 -9.203125 C 18.40625 -7.328125 18.097656 -5.664062 17.484375 -4.21875 C 16.878906 -2.78125 15.992188 -1.648438 14.828125 -0.828125 C 13.660156 -0.00390625 12.210938 0.40625 10.484375 0.40625 C 8.765625 0.40625 7.316406 0.0078125 6.140625 -0.78125 C 4.960938 -1.570312 4.070312 -2.6875 3.46875 -4.125 C 2.863281 -5.570312 2.5625 -7.253906 2.5625 -9.171875 C 2.5625 -11.078125 2.863281 -12.75 3.46875 -14.1875 C 4.082031 -15.632812 4.976562 -16.757812 6.15625 -17.5625 C 7.34375 -18.375 8.796875 -18.78125 10.515625 -18.78125 Z M 10.515625 -16.390625 C 8.929688 -16.390625 7.734375 -15.800781 6.921875 -14.625 C 6.117188 -13.457031 5.71875 -11.640625 5.71875 -9.171875 C 5.71875 -6.753906 6.113281 -4.957031 6.90625 -3.78125 C 7.707031 -2.601562 8.898438 -2.015625 10.484375 -2.015625 C 12.066406 -2.015625 13.253906 -2.601562 14.046875 -3.78125 C 14.847656 -4.957031 15.25 -6.765625 15.25 -9.203125 C 15.25 -11.648438 14.851562 -13.457031 14.0625 -14.625 C 13.269531 -15.800781 12.085938 -16.390625 10.515625 -16.390625 Z M 10.515625 -16.390625 "/></g></g></g><g fill="#000000" fill-opacity="1"><g transform="translate(565.354726, 105.752164)"><g><path d="M 4.734375 0 L 4.734375 -24.0625 L 7.78125 -24.0625 L 7.78125 -2.703125 L 18.75 -2.703125 L 18.40625 0 Z M 4.734375 0 "/></g></g></g><g fill="#000000" fill-opacity="1"><g transform="translate(586.328952, 105.752164)"><g><path d="M 19.34375 -12 C 19.34375 -9.582031 19.015625 -7.4375 18.359375 -5.5625 C 17.703125 -3.695312 16.710938 -2.234375 15.390625 -1.171875 C 14.078125 -0.117188 12.441406 0.40625 10.484375 0.40625 C 8.535156 0.40625 6.898438 -0.109375 5.578125 -1.140625 C 4.253906 -2.171875 3.265625 -3.613281 2.609375 -5.46875 C 1.953125 -7.320312 1.625 -9.488281 1.625 -11.96875 C 1.625 -14.40625 1.953125 -16.5625 2.609375 -18.4375 C 3.265625 -20.3125 4.253906 -21.78125 5.578125 -22.84375 C 6.898438 -23.914062 8.535156 -24.453125 10.484375 -24.453125 C 12.441406 -24.453125 14.078125 -23.929688 15.390625 -22.890625 C 16.710938 -21.859375 17.703125 -20.410156 18.359375 -18.546875 C 19.015625 -16.679688 19.34375 -14.5 19.34375 -12 Z M 16.171875 -12 C 16.171875 -15.207031 15.726562 -17.660156 14.84375 -19.359375 C 13.96875 -21.066406 12.515625 -21.921875 10.484375 -21.921875 C 8.453125 -21.921875 7 -21.0625 6.125 -19.34375 C 5.25 -17.632812 4.8125 -15.175781 4.8125 -11.96875 C 4.8125 -8.769531 5.265625 -6.332031 6.171875 -4.65625 C 7.078125 -2.988281 8.515625 -2.15625 10.484375 -2.15625 C 12.515625 -2.15625 13.96875 -2.992188 14.84375 -4.671875 C 15.726562 -6.359375 16.171875 -8.800781 16.171875 -12 Z M 16.171875 -12 "/></g></g></g><g fill="#000000" fill-opacity="1"><g transform="translate(607.303178, 105.752164)"><g><path d="M 10.953125 0.40625 C 9.054688 0.40625 7.40625 -0.0507812 6 -0.96875 C 4.59375 -1.894531 3.503906 -3.273438 2.734375 -5.109375 C 1.972656 -6.953125 1.59375 -9.265625 1.59375 -12.046875 C 1.59375 -14.117188 1.867188 -15.925781 2.421875 -17.46875 C 2.972656 -19.019531 3.722656 -20.3125 4.671875 -21.34375 C 5.617188 -22.382812 6.695312 -23.160156 7.90625 -23.671875 C 9.113281 -24.191406 10.363281 -24.453125 11.65625 -24.453125 C 13.226562 -24.453125 14.53125 -24.226562 15.5625 -23.78125 C 16.601562 -23.332031 17.597656 -22.675781 18.546875 -21.8125 L 16.703125 -19.90625 C 15.972656 -20.59375 15.203125 -21.097656 14.390625 -21.421875 C 13.578125 -21.753906 12.671875 -21.921875 11.671875 -21.921875 C 10.796875 -21.921875 9.953125 -21.75 9.140625 -21.40625 C 8.328125 -21.070312 7.597656 -20.519531 6.953125 -19.75 C 6.304688 -18.988281 5.789062 -17.976562 5.40625 -16.71875 C 5.03125 -15.46875 4.84375 -13.910156 4.84375 -12.046875 C 4.84375 -9.722656 5.082031 -7.832031 5.5625 -6.375 C 6.050781 -4.914062 6.769531 -3.847656 7.71875 -3.171875 C 8.664062 -2.492188 9.835938 -2.15625 11.234375 -2.15625 C 12.078125 -2.15625 12.875 -2.253906 13.625 -2.453125 C 14.375 -2.648438 15.101562 -2.929688 15.8125 -3.296875 L 15.8125 -10.640625 L 11.078125 -10.640625 L 10.71875 -13.15625 L 18.828125 -13.15625 L 18.828125 -1.6875 C 17.742188 -1.113281 16.585938 -0.617188 15.359375 -0.203125 C 14.140625 0.203125 12.671875 0.40625 10.953125 0.40625 Z M 10.953125 0.40625 "/></g></g></g><g fill="#000000" fill-opacity="1"><g transform="translate(628.277404, 105.752164)"><g><path d="M 17.375 -24.0625 L 17.375 -21.640625 L 12.03125 -21.640625 L 12.03125 -2.421875 L 17.375 -2.421875 L 17.375 0 L 3.59375 0 L 3.59375 -2.421875 L 8.953125 -2.421875 L 8.953125 -21.640625 L 3.59375 -21.640625 L 3.59375 -24.0625 Z M 17.375 -24.0625 "/></g></g></g><g fill="#000000" fill-opacity="1"><g transform="translate(649.25163, 105.752164)"><g><path d="M 12.515625 -24.453125 C 14.085938 -24.453125 15.398438 -24.253906 16.453125 -23.859375 C 17.515625 -23.460938 18.523438 -22.878906 19.484375 -22.109375 L 17.796875 -20.140625 C 17.035156 -20.773438 16.234375 -21.226562 15.390625 -21.5 C 14.546875 -21.78125 13.660156 -21.921875 12.734375 -21.921875 C 11.421875 -21.921875 10.203125 -21.609375 9.078125 -20.984375 C 7.960938 -20.359375 7.0625 -19.328125 6.375 -17.890625 C 5.695312 -16.453125 5.359375 -14.503906 5.359375 -12.046875 C 5.359375 -9.648438 5.679688 -7.726562 6.328125 -6.28125 C 6.984375 -4.84375 7.863281 -3.800781 8.96875 -3.15625 C 10.070312 -2.519531 11.304688 -2.203125 12.671875 -2.203125 C 14.023438 -2.203125 15.132812 -2.40625 16 -2.8125 C 16.863281 -3.21875 17.617188 -3.6875 18.265625 -4.21875 L 19.828125 -2.21875 C 19.097656 -1.507812 18.144531 -0.894531 16.96875 -0.375 C 15.789062 0.144531 14.347656 0.40625 12.640625 0.40625 C 10.691406 0.40625 8.925781 -0.0703125 7.34375 -1.03125 C 5.769531 -1.988281 4.519531 -3.390625 3.59375 -5.234375 C 2.675781 -7.078125 2.21875 -9.347656 2.21875 -12.046875 C 2.21875 -14.742188 2.6875 -17.015625 3.625 -18.859375 C 4.5625 -20.703125 5.8125 -22.09375 7.375 -23.03125 C 8.945312 -23.976562 10.660156 -24.453125 12.515625 -24.453125 Z M 12.515625 -24.453125 "/></g></g></g><g fill="#000000" fill-opacity="1"><g transform="translate(670.225857, 105.752164)"><g><path d="M 7.390625 -2.6875 C 7.390625 -3.257812 7.523438 -3.773438 7.796875 -4.234375 C 8.066406 -4.691406 8.429688 -5.054688 8.890625 -5.328125 C 9.347656 -5.609375 9.867188 -5.75 10.453125 -5.75 C 11.046875 -5.75 11.570312 -5.609375 12.03125 -5.328125 C 12.5 -5.054688 12.867188 -4.691406 13.140625 -4.234375 C 13.410156 -3.773438 13.546875 -3.257812 13.546875 -2.6875 C 13.546875 -2.113281 13.410156 -1.59375 13.140625 -1.125 C 12.867188 -0.65625 12.5 -0.28125 12.03125 0 C 11.570312 0.269531 11.046875 0.40625 10.453125 0.40625 C 9.867188 0.40625 9.347656 0.269531 8.890625 0 C 8.429688 -0.28125 8.066406 -0.65625 7.796875 -1.125 C 7.523438 -1.59375 7.390625 -2.113281 7.390625 -2.6875 Z M 7.390625 -2.6875 "/></g></g></g><g fill="#000000" fill-opacity="1"><g transform="translate(691.200083, 105.752164)"><g><path d="M 12.828125 -18.40625 L 12.828125 -2.328125 L 18.015625 -2.328125 L 18.015625 0 L 4.21875 0 L 4.21875 -2.328125 L 9.890625 -2.328125 L 9.890625 -16.078125 L 4.390625 -16.078125 L 4.390625 -18.40625 Z M 10.484375 -27.015625 C 11.140625 -27.015625 11.660156 -26.816406 12.046875 -26.421875 C 12.441406 -26.023438 12.640625 -25.539062 12.640625 -24.96875 C 12.640625 -24.375 12.441406 -23.875 12.046875 -23.46875 C 11.660156 -23.070312 11.140625 -22.875 10.484375 -22.875 C 9.867188 -22.875 9.363281 -23.070312 8.96875 -23.46875 C 8.570312 -23.875 8.375 -24.375 8.375 -24.96875 C 8.375 -25.539062 8.570312 -26.023438 8.96875 -26.421875 C 9.363281 -26.816406 9.867188 -27.015625 10.484375 -27.015625 Z M 10.484375 -27.015625 "/></g></g></g><g fill="#000000" fill-opacity="1"><g transform="translate(712.174309, 105.752164)"><g><path d="M 9.765625 -2.03125 C 11.179688 -2.03125 12.296875 -2.296875 13.109375 -2.828125 C 13.929688 -3.359375 14.34375 -4.066406 14.34375 -4.953125 C 14.34375 -5.503906 14.238281 -5.984375 14.03125 -6.390625 C 13.832031 -6.804688 13.414062 -7.175781 12.78125 -7.5 C 12.15625 -7.820312 11.191406 -8.144531 9.890625 -8.46875 C 8.617188 -8.789062 7.515625 -9.15625 6.578125 -9.5625 C 5.640625 -9.976562 4.910156 -10.519531 4.390625 -11.1875 C 3.878906 -11.851562 3.625 -12.710938 3.625 -13.765625 C 3.625 -14.804688 3.914062 -15.703125 4.5 -16.453125 C 5.082031 -17.203125 5.898438 -17.773438 6.953125 -18.171875 C 8.003906 -18.578125 9.222656 -18.78125 10.609375 -18.78125 C 12.085938 -18.78125 13.375 -18.582031 14.46875 -18.1875 C 15.570312 -17.800781 16.507812 -17.328125 17.28125 -16.765625 L 15.984375 -14.765625 C 15.285156 -15.242188 14.515625 -15.632812 13.671875 -15.9375 C 12.835938 -16.25 11.828125 -16.40625 10.640625 -16.40625 C 9.191406 -16.40625 8.164062 -16.179688 7.5625 -15.734375 C 6.957031 -15.285156 6.65625 -14.707031 6.65625 -14 C 6.65625 -13.457031 6.800781 -13.007812 7.09375 -12.65625 C 7.394531 -12.300781 7.898438 -11.976562 8.609375 -11.6875 C 9.328125 -11.40625 10.304688 -11.097656 11.546875 -10.765625 C 12.753906 -10.453125 13.800781 -10.070312 14.6875 -9.625 C 15.582031 -9.1875 16.28125 -8.601562 16.78125 -7.875 C 17.28125 -7.15625 17.53125 -6.222656 17.53125 -5.078125 C 17.53125 -3.773438 17.15625 -2.71875 16.40625 -1.90625 C 15.664062 -1.101562 14.703125 -0.515625 13.515625 -0.140625 C 12.335938 0.222656 11.085938 0.40625 9.765625 0.40625 C 8.097656 0.40625 6.675781 0.164062 5.5 -0.3125 C 4.332031 -0.800781 3.351562 -1.390625 2.5625 -2.078125 L 4.25 -4.015625 C 4.96875 -3.421875 5.796875 -2.941406 6.734375 -2.578125 C 7.671875 -2.210938 8.679688 -2.03125 9.765625 -2.03125 Z M 9.765625 -2.03125 "/></g></g></g><g fill="#000000" fill-opacity="1"><g transform="translate(733.148535, 105.752164)"><g><path d="M 3.484375 -9.671875 L 3.484375 -12.21875 L 17.5 -12.21875 L 17.5 -9.671875 Z M 3.484375 -9.671875 "/></g></g></g><g fill="#000000" fill-opacity="1"><g transform="translate(754.122761, 105.752164)"><g><path d="M 16.6875 -4.015625 C 16.6875 -3.285156 16.804688 -2.75 17.046875 -2.40625 C 17.296875 -2.070312 17.675781 -1.820312 18.1875 -1.65625 L 17.46875 0.40625 C 16.675781 0.300781 15.984375 0.046875 15.390625 -0.359375 C 14.796875 -0.765625 14.367188 -1.375 14.109375 -2.1875 C 13.441406 -1.332031 12.613281 -0.6875 11.625 -0.25 C 10.632812 0.1875 9.539062 0.40625 8.34375 0.40625 C 6.5 0.40625 5.046875 -0.109375 3.984375 -1.140625 C 2.921875 -2.179688 2.390625 -3.5625 2.390625 -5.28125 C 2.390625 -7.175781 3.128906 -8.628906 4.609375 -9.640625 C 6.085938 -10.660156 8.226562 -11.171875 11.03125 -11.171875 L 13.734375 -11.171875 L 13.734375 -12.703125 C 13.734375 -14.035156 13.34375 -14.976562 12.5625 -15.53125 C 11.789062 -16.082031 10.71875 -16.359375 9.34375 -16.359375 C 8.738281 -16.359375 8.03125 -16.285156 7.21875 -16.140625 C 6.40625 -15.992188 5.519531 -15.753906 4.5625 -15.421875 L 3.796875 -17.640625 C 4.921875 -18.054688 5.976562 -18.347656 6.96875 -18.515625 C 7.957031 -18.691406 8.898438 -18.78125 9.796875 -18.78125 C 12.097656 -18.78125 13.820312 -18.25 14.96875 -17.1875 C 16.113281 -16.125 16.6875 -14.675781 16.6875 -12.84375 Z M 9.09375 -1.828125 C 10 -1.828125 10.863281 -2.054688 11.6875 -2.515625 C 12.519531 -2.984375 13.203125 -3.625 13.734375 -4.4375 L 13.734375 -9.171875 L 11.078125 -9.171875 C 9.054688 -9.171875 7.628906 -8.820312 6.796875 -8.125 C 5.960938 -7.425781 5.546875 -6.488281 5.546875 -5.3125 C 5.546875 -4.164062 5.835938 -3.296875 6.421875 -2.703125 C 7.015625 -2.117188 7.90625 -1.828125 9.09375 -1.828125 Z M 9.09375 -1.828125 "/></g></g></g><g fill="#000000" fill-opacity="1"><g transform="translate(775.096987, 105.752164)"><g><path d="M 7.390625 -2.6875 C 7.390625 -3.257812 7.523438 -3.773438 7.796875 -4.234375 C 8.066406 -4.691406 8.429688 -5.054688 8.890625 -5.328125 C 9.347656 -5.609375 9.867188 -5.75 10.453125 -5.75 C 11.046875 -5.75 11.570312 -5.609375 12.03125 -5.328125 C 12.5 -5.054688 12.867188 -4.691406 13.140625 -4.234375 C 13.410156 -3.773438 13.546875 -3.257812 13.546875 -2.6875 C 13.546875 -2.113281 13.410156 -1.59375 13.140625 -1.125 C 12.867188 -0.65625 12.5 -0.28125 12.03125 0 C 11.570312 0.269531 11.046875 0.40625 10.453125 0.40625 C 9.867188 0.40625 9.347656 0.269531 8.890625 0 C 8.429688 -0.28125 8.066406 -0.65625 7.796875 -1.125 C 7.523438 -1.59375 7.390625 -2.113281 7.390625 -2.6875 Z M 7.390625 -2.6875 "/></g></g></g></g></g></g></g></g></g></mask><clipPath id="949b481a80"><path d="M 348.496094 2.253906 L 865.988281 2.253906 L 865.988281 187.503906 L 348.496094 187.503906 Z M 348.496094 2.253906 " clip-rule="nonzero"/></clipPath><clipPath id="1a418a5739"><rect x="0" width="900" y="0" height="190"/></clipPath><clipPath id="94138094e8"><rect x="0" width="900" y="0" height="190"/></clipPath><clipPath id="c37d219936"><path d="M 216 247 L 219 247 L 219 274.503906 L 216 274.503906 Z M 216 247 " clip-rule="nonzero"/></clipPath><clipPath id="3a051dc190"><path d="M 139.523438 247 L 295.523438 247 L 295.523438 250 L 139.523438 250 Z M 139.523438 247 " clip-rule="nonzero"/></clipPath><clipPath id="c693d5a866"><path d="M 139.523438 216.003906 L 142 216.003906 L 142 250 L 139.523438 250 Z M 139.523438 216.003906 " clip-rule="nonzero"/></clipPath><clipPath id="25aaadf97b"><path d="M 293 216.003906 L 295.523438 216.003906 L 295.523438 250 L 293 250 Z M 293 216.003906 " clip-rule="nonzero"/></clipPath><clipPath id="9fb885be51"><path d="M 668 247 L 671 247 L 671 274.503906 L 668 274.503906 Z M 668 247 " clip-rule="nonzero"/></clipPath><clipPath id="ecef18720f"><path d="M 591.542969 247 L 747.542969 247 L 747.542969 250 L 591.542969 250 Z M 591.542969 247 " clip-rule="nonzero"/></clipPath><clipPath id="03db53f2d0"><path d="M 591.542969 216.003906 L 594 216.003906 L 594 250 L 591.542969 250 Z M 591.542969 216.003906 " clip-rule="nonzero"/></clipPath><clipPath id="9bae157e3f"><path d="M 745 216.003906 L 747.542969 216.003906 L 747.542969 250 L 745 250 Z M 745 216.003906 " clip-rule="nonzero"/></clipPath></defs><rect x="-90" width="1080" fill="#ffffff" y="-35.999999" height="431.999984" fill-opacity="1"/><rect x="-90" width="1080" fill="#1e1e1e" y="-35.999999" height="431.999984" fill-opacity="1"/><g clip-path="url(#d233ec2b87)"><path fill="#7ed957" d="M 517.242188 106.390625 C 517.242188 106.792969 517.644531 107.117188 518.144531 107.117188 C 518.644531 107.117188 519.046875 106.792969 519.046875 106.390625 L 519.046875 81.332031 C 519.046875 80.929688 518.644531 80.605469 518.144531 80.605469 C 517.644531 80.605469 517.242188 80.929688 517.242188 81.332031 Z M 517.242188 106.390625 " fill-opacity="1" fill-rule="evenodd"/></g><g clip-path="url(#2b1878bc84)"><path fill="#7ed957" d="M 440.917969 105.660156 C 440.421875 105.660156 440.015625 105.988281 440.015625 106.386719 C 440.015625 106.789062 440.421875 107.113281 440.917969 107.113281 L 595.371094 107.113281 C 595.867188 107.113281 596.273438 106.789062 596.273438 106.386719 C 596.273438 105.988281 595.867188 105.660156 595.371094 105.660156 Z M 440.917969 105.660156 " fill-opacity="1" fill-rule="evenodd"/></g><g clip-path="url(#a54cd041cb)"><path fill="#7ed957" d="M 596.273438 106.386719 C 596.273438 105.988281 595.867188 105.660156 595.371094 105.660156 C 594.871094 105.660156 594.464844 105.988281 594.464844 106.386719 L 594.464844 138.246094 C 594.464844 138.644531 594.871094 138.972656 595.371094 138.972656 C 595.867188 138.972656 596.273438 138.644531 596.273438 138.246094 Z M 596.273438 106.386719 " fill-opacity="1" fill-rule="evenodd"/></g><g clip-path="url(#126c3a03f9)"><path fill="#7ed957" d="M 441.820312 106.386719 C 441.820312 105.988281 441.417969 105.660156 440.917969 105.660156 C 440.421875 105.660156 440.015625 105.988281 440.015625 106.386719 L 440.015625 138.246094 C 440.015625 138.644531 440.421875 138.972656 440.917969 138.972656 C 441.417969 138.972656 441.820312 138.644531 441.820312 138.246094 Z M 441.820312 106.386719 " fill-opacity="1" fill-rule="evenodd"/></g><g fill="#ff66c4" fill-opacity="1"><g transform="translate(40.992201, 188.752164)"><g><path d="M 17.359375 -24.0625 L 17.359375 -7.984375 C 17.359375 -6.984375 17.222656 -5.984375 16.953125 -4.984375 C 16.691406 -3.992188 16.25 -3.09375 15.625 -2.28125 C 15.007812 -1.46875 14.171875 -0.816406 13.109375 -0.328125 C 12.046875 0.160156 10.722656 0.40625 9.140625 0.40625 C 7.960938 0.40625 6.804688 0.21875 5.671875 -0.15625 C 4.535156 -0.53125 3.488281 -1.070312 2.53125 -1.78125 L 3.875 -3.796875 C 4.925781 -3.140625 5.882812 -2.695312 6.75 -2.46875 C 7.613281 -2.238281 8.398438 -2.125 9.109375 -2.125 C 10.785156 -2.125 12.070312 -2.660156 12.96875 -3.734375 C 13.875 -4.804688 14.328125 -6.28125 14.328125 -8.15625 L 14.328125 -21.578125 L 7.203125 -21.578125 L 7.203125 -24.0625 Z M 17.359375 -24.0625 "/></g></g></g><g fill="#ff66c4" fill-opacity="1"><g transform="translate(61.966427, 188.752164)"><g><path d="M 10.515625 -18.78125 C 12.253906 -18.78125 13.707031 -18.382812 14.875 -17.59375 C 16.050781 -16.8125 16.929688 -15.703125 17.515625 -14.265625 C 18.109375 -12.835938 18.40625 -11.148438 18.40625 -9.203125 C 18.40625 -7.328125 18.097656 -5.664062 17.484375 -4.21875 C 16.878906 -2.78125 15.992188 -1.648438 14.828125 -0.828125 C 13.660156 -0.00390625 12.210938 0.40625 10.484375 0.40625 C 8.765625 0.40625 7.316406 0.0078125 6.140625 -0.78125 C 4.960938 -1.570312 4.070312 -2.6875 3.46875 -4.125 C 2.863281 -5.570312 2.5625 -7.253906 2.5625 -9.171875 C 2.5625 -11.078125 2.863281 -12.75 3.46875 -14.1875 C 4.082031 -15.632812 4.976562 -16.757812 6.15625 -17.5625 C 7.34375 -18.375 8.796875 -18.78125 10.515625 -18.78125 Z M 10.515625 -16.390625 C 8.929688 -16.390625 7.734375 -15.800781 6.921875 -14.625 C 6.117188 -13.457031 5.71875 -11.640625 5.71875 -9.171875 C 5.71875 -6.753906 6.113281 -4.957031 6.90625 -3.78125 C 7.707031 -2.601562 8.898438 -2.015625 10.484375 -2.015625 C 12.066406 -2.015625 13.253906 -2.601562 14.046875 -3.78125 C 14.847656 -4.957031 15.25 -6.765625 15.25 -9.203125 C 15.25 -11.648438 14.851562 -13.457031 14.0625 -14.625 C 13.269531 -15.800781 12.085938 -16.390625 10.515625 -16.390625 Z M 10.515625 -16.390625 "/></g></g></g><g fill="#ff66c4" fill-opacity="1"><g transform="translate(82.940653, 188.752164)"><g><path d="M 6.453125 -26.09375 L 6.453125 -15.890625 C 7.171875 -16.859375 8.054688 -17.582031 9.109375 -18.0625 C 10.171875 -18.539062 11.242188 -18.78125 12.328125 -18.78125 C 14.117188 -18.78125 15.425781 -18.300781 16.25 -17.34375 C 17.082031 -16.394531 17.5 -15.070312 17.5 -13.375 L 17.5 0 L 14.5625 0 L 14.5625 -13.296875 C 14.5625 -14.398438 14.300781 -15.207031 13.78125 -15.71875 C 13.269531 -16.226562 12.46875 -16.484375 11.375 -16.484375 C 10.675781 -16.484375 10.007812 -16.320312 9.375 -16 C 8.75 -15.6875 8.1875 -15.296875 7.6875 -14.828125 C 7.1875 -14.367188 6.773438 -13.894531 6.453125 -13.40625 L 6.453125 0 L 3.515625 0 L 3.515625 -25.78125 Z M 6.453125 -26.09375 "/></g></g></g><g fill="#ff66c4" fill-opacity="1"><g transform="translate(103.914879, 188.752164)"><g><path d="M 3.515625 0 L 3.515625 -18.40625 L 6.015625 -18.40625 L 6.234375 -15.84375 C 6.984375 -16.789062 7.921875 -17.515625 9.046875 -18.015625 C 10.171875 -18.523438 11.265625 -18.78125 12.328125 -18.78125 C 14.128906 -18.78125 15.441406 -18.300781 16.265625 -17.34375 C 17.085938 -16.394531 17.5 -15.070312 17.5 -13.375 L 17.5 0 L 14.5625 0 L 14.5625 -11.203125 C 14.5625 -12.460938 14.488281 -13.476562 14.34375 -14.25 C 14.207031 -15.03125 13.914062 -15.597656 13.46875 -15.953125 C 13.03125 -16.304688 12.34375 -16.484375 11.40625 -16.484375 C 10.6875 -16.484375 10.007812 -16.320312 9.375 -16 C 8.738281 -15.6875 8.171875 -15.296875 7.671875 -14.828125 C 7.179688 -14.359375 6.773438 -13.882812 6.453125 -13.40625 L 6.453125 0 Z M 3.515625 0 "/></g></g></g><g fill="#ff66c4" fill-opacity="1"><g transform="translate(124.889105, 188.752164)"><g><path d="M 15.15625 -6.140625 L 5.625 -6.140625 L 3.703125 0 L 0.71875 0 L 8.546875 -24.0625 L 12.421875 -24.0625 L 20.25 0 L 17.078125 0 Z M 6.40625 -8.65625 L 14.359375 -8.65625 L 10.421875 -21.515625 Z M 6.40625 -8.65625 "/></g></g></g><g fill="#ff66c4" fill-opacity="1"><g transform="translate(145.863331, 188.752164)"><g><path d="M 5.8125 -8.15625 C 5.875 -6.738281 6.148438 -5.578125 6.640625 -4.671875 C 7.128906 -3.773438 7.773438 -3.113281 8.578125 -2.6875 C 9.378906 -2.257812 10.253906 -2.046875 11.203125 -2.046875 C 12.148438 -2.046875 13.003906 -2.1875 13.765625 -2.46875 C 14.523438 -2.75 15.304688 -3.160156 16.109375 -3.703125 L 17.5 -1.765625 C 16.632812 -1.085938 15.648438 -0.554688 14.546875 -0.171875 C 13.441406 0.210938 12.316406 0.40625 11.171875 0.40625 C 9.390625 0.40625 7.867188 0.00390625 6.609375 -0.796875 C 5.347656 -1.609375 4.390625 -2.734375 3.734375 -4.171875 C 3.078125 -5.609375 2.75 -7.273438 2.75 -9.171875 C 2.75 -11.035156 3.078125 -12.691406 3.734375 -14.140625 C 4.398438 -15.585938 5.332031 -16.722656 6.53125 -17.546875 C 7.738281 -18.367188 9.15625 -18.78125 10.78125 -18.78125 C 12.332031 -18.78125 13.664062 -18.414062 14.78125 -17.6875 C 15.90625 -16.96875 16.765625 -15.929688 17.359375 -14.578125 C 17.960938 -13.234375 18.265625 -11.628906 18.265625 -9.765625 C 18.265625 -9.453125 18.257812 -9.15625 18.25 -8.875 C 18.238281 -8.601562 18.21875 -8.363281 18.1875 -8.15625 Z M 10.8125 -16.375 C 9.445312 -16.375 8.304688 -15.890625 7.390625 -14.921875 C 6.484375 -13.953125 5.96875 -12.457031 5.84375 -10.4375 L 15.4375 -10.4375 C 15.394531 -12.40625 14.957031 -13.882812 14.125 -14.875 C 13.300781 -15.875 12.195312 -16.375 10.8125 -16.375 Z M 10.8125 -16.375 "/></g></g></g><g fill="#ff66c4" fill-opacity="1"><g transform="translate(166.837557, 188.752164)"><g><path d="M 3.6875 0 L 3.6875 -2.25 L 6.546875 -2.25 L 6.546875 -16.140625 L 3.6875 -16.140625 L 3.6875 -18.40625 L 8.796875 -18.40625 L 9.328125 -14.046875 C 10.046875 -15.566406 10.910156 -16.738281 11.921875 -17.5625 C 12.929688 -18.394531 14.269531 -18.8125 15.9375 -18.8125 C 16.445312 -18.8125 16.898438 -18.769531 17.296875 -18.6875 C 17.703125 -18.613281 18.117188 -18.519531 18.546875 -18.40625 L 17.6875 -15.78125 C 17.300781 -15.882812 16.953125 -15.960938 16.640625 -16.015625 C 16.328125 -16.066406 15.960938 -16.09375 15.546875 -16.09375 C 14.140625 -16.09375 12.929688 -15.59375 11.921875 -14.59375 C 10.910156 -13.59375 10.097656 -12.078125 9.484375 -10.046875 L 9.484375 -2.25 L 13.234375 -2.25 L 13.234375 0 Z M 15.71875 -12.1875 L 15.71875 -16.1875 L 16.015625 -18.40625 L 18.546875 -18.40625 L 18.125 -12.1875 Z M 15.71875 -12.1875 "/></g></g></g><g fill="#ff66c4" fill-opacity="1"><g transform="translate(187.811783, 188.752164)"><g><path d="M 12.828125 -18.40625 L 12.828125 -2.328125 L 18.015625 -2.328125 L 18.015625 0 L 4.21875 0 L 4.21875 -2.328125 L 9.890625 -2.328125 L 9.890625 -16.078125 L 4.390625 -16.078125 L 4.390625 -18.40625 Z M 10.484375 -27.015625 C 11.140625 -27.015625 11.660156 -26.816406 12.046875 -26.421875 C 12.441406 -26.023438 12.640625 -25.539062 12.640625 -24.96875 C 12.640625 -24.375 12.441406 -23.875 12.046875 -23.46875 C 11.660156 -23.070312 11.140625 -22.875 10.484375 -22.875 C 9.867188 -22.875 9.363281 -23.070312 8.96875 -23.46875 C 8.570312 -23.875 8.375 -24.375 8.375 -24.96875 C 8.375 -25.539062 8.570312 -26.023438 8.96875 -26.421875 C 9.363281 -26.816406 9.867188 -27.015625 10.484375 -27.015625 Z M 10.484375 -27.015625 "/></g></g></g><g fill="#ff66c4" fill-opacity="1"><g transform="translate(208.786009, 188.752164)"><g><path d="M 16.6875 -4.015625 C 16.6875 -3.285156 16.804688 -2.75 17.046875 -2.40625 C 17.296875 -2.070312 17.675781 -1.820312 18.1875 -1.65625 L 17.46875 0.40625 C 16.675781 0.300781 15.984375 0.046875 15.390625 -0.359375 C 14.796875 -0.765625 14.367188 -1.375 14.109375 -2.1875 C 13.441406 -1.332031 12.613281 -0.6875 11.625 -0.25 C 10.632812 0.1875 9.539062 0.40625 8.34375 0.40625 C 6.5 0.40625 5.046875 -0.109375 3.984375 -1.140625 C 2.921875 -2.179688 2.390625 -3.5625 2.390625 -5.28125 C 2.390625 -7.175781 3.128906 -8.628906 4.609375 -9.640625 C 6.085938 -10.660156 8.226562 -11.171875 11.03125 -11.171875 L 13.734375 -11.171875 L 13.734375 -12.703125 C 13.734375 -14.035156 13.34375 -14.976562 12.5625 -15.53125 C 11.789062 -16.082031 10.71875 -16.359375 9.34375 -16.359375 C 8.738281 -16.359375 8.03125 -16.285156 7.21875 -16.140625 C 6.40625 -15.992188 5.519531 -15.753906 4.5625 -15.421875 L 3.796875 -17.640625 C 4.921875 -18.054688 5.976562 -18.347656 6.96875 -18.515625 C 7.957031 -18.691406 8.898438 -18.78125 9.796875 -18.78125 C 12.097656 -18.78125 13.820312 -18.25 14.96875 -17.1875 C 16.113281 -16.125 16.6875 -14.675781 16.6875 -12.84375 Z M 9.09375 -1.828125 C 10 -1.828125 10.863281 -2.054688 11.6875 -2.515625 C 12.519531 -2.984375 13.203125 -3.625 13.734375 -4.4375 L 13.734375 -9.171875 L 11.078125 -9.171875 C 9.054688 -9.171875 7.628906 -8.820312 6.796875 -8.125 C 5.960938 -7.425781 5.546875 -6.488281 5.546875 -5.3125 C 5.546875 -4.164062 5.835938 -3.296875 6.421875 -2.703125 C 7.015625 -2.117188 7.90625 -1.828125 9.09375 -1.828125 Z M 9.09375 -1.828125 "/></g></g></g><g fill="#ff66c4" fill-opacity="1"><g transform="translate(229.760236, 188.752164)"><g><path d="M 10.671875 -25.8125 L 10.671875 -4.546875 C 10.671875 -3.640625 10.953125 -2.992188 11.515625 -2.609375 C 12.085938 -2.234375 12.820312 -2.046875 13.71875 -2.046875 C 14.28125 -2.046875 14.8125 -2.101562 15.3125 -2.21875 C 15.8125 -2.332031 16.3125 -2.488281 16.8125 -2.6875 L 17.59375 -0.546875 C 17.09375 -0.296875 16.472656 -0.078125 15.734375 0.109375 C 14.992188 0.304688 14.160156 0.40625 13.234375 0.40625 C 11.597656 0.40625 10.269531 -0.046875 9.25 -0.953125 C 8.238281 -1.859375 7.734375 -3.109375 7.734375 -4.703125 L 7.734375 -23.484375 L 2.09375 -23.484375 L 2.09375 -25.8125 Z M 10.671875 -25.8125 "/></g></g></g><g fill="#ff66c4" fill-opacity="1"><g transform="translate(250.734462, 188.752164)"><g><path d="M 7.390625 -2.6875 C 7.390625 -3.257812 7.523438 -3.773438 7.796875 -4.234375 C 8.066406 -4.691406 8.429688 -5.054688 8.890625 -5.328125 C 9.347656 -5.609375 9.867188 -5.75 10.453125 -5.75 C 11.046875 -5.75 11.570312 -5.609375 12.03125 -5.328125 C 12.5 -5.054688 12.867188 -4.691406 13.140625 -4.234375 C 13.410156 -3.773438 13.546875 -3.257812 13.546875 -2.6875 C 13.546875 -2.113281 13.410156 -1.59375 13.140625 -1.125 C 12.867188 -0.65625 12.5 -0.28125 12.03125 0 C 11.570312 0.269531 11.046875 0.40625 10.453125 0.40625 C 9.867188 0.40625 9.347656 0.269531 8.890625 0 C 8.429688 -0.28125 8.066406 -0.65625 7.796875 -1.125 C 7.523438 -1.59375 7.390625 -2.113281 7.390625 -2.6875 Z M 7.390625 -2.6875 "/></g></g></g><g fill="#ff66c4" fill-opacity="1"><g transform="translate(271.708688, 188.752164)"><g><path d="M 15.15625 -6.140625 L 5.625 -6.140625 L 3.703125 0 L 0.71875 0 L 8.546875 -24.0625 L 12.421875 -24.0625 L 20.25 0 L 17.078125 0 Z M 6.40625 -8.65625 L 14.359375 -8.65625 L 10.421875 -21.515625 Z M 6.40625 -8.65625 "/></g></g></g><g fill="#ff66c4" fill-opacity="1"><g transform="translate(292.682914, 188.752164)"><g><path d="M 7.1875 -2.5 L 17.421875 -2.5 L 17.046875 0 L 3.578125 0 L 3.578125 -2.21875 L 13.78125 -15.84375 L 4.390625 -15.84375 L 4.390625 -18.40625 L 17.3125 -18.40625 L 17.3125 -16.125 Z M 7.1875 -2.5 "/></g></g></g><g fill="#ff66c4" fill-opacity="1"><g transform="translate(313.65714, 188.752164)"><g><path d="M 11.828125 -2.125 C 12.753906 -2.125 13.613281 -2.273438 14.40625 -2.578125 C 15.207031 -2.890625 15.945312 -3.273438 16.625 -3.734375 L 18.046875 -1.8125 C 17.242188 -1.125 16.273438 -0.582031 15.140625 -0.1875 C 14.015625 0.207031 12.910156 0.40625 11.828125 0.40625 C 10.003906 0.40625 8.445312 0.015625 7.15625 -0.765625 C 5.863281 -1.554688 4.878906 -2.664062 4.203125 -4.09375 C 3.535156 -5.519531 3.203125 -7.195312 3.203125 -9.125 C 3.203125 -10.96875 3.539062 -12.617188 4.21875 -14.078125 C 4.90625 -15.535156 5.890625 -16.679688 7.171875 -17.515625 C 8.460938 -18.359375 10.023438 -18.78125 11.859375 -18.78125 C 13.035156 -18.78125 14.140625 -18.601562 15.171875 -18.25 C 16.203125 -17.894531 17.148438 -17.363281 18.015625 -16.65625 L 16.578125 -14.703125 C 15.804688 -15.242188 15.023438 -15.648438 14.234375 -15.921875 C 13.453125 -16.203125 12.648438 -16.34375 11.828125 -16.34375 C 10.242188 -16.34375 8.9375 -15.75 7.90625 -14.5625 C 6.882812 -13.375 6.375 -11.5625 6.375 -9.125 C 6.375 -7.488281 6.609375 -6.15625 7.078125 -5.125 C 7.554688 -4.09375 8.207031 -3.332031 9.03125 -2.84375 C 9.851562 -2.363281 10.785156 -2.125 11.828125 -2.125 Z M 11.828125 -2.125 "/></g></g></g><g fill="#ff66c4" fill-opacity="1"><g transform="translate(334.631366, 188.752164)"><g><path d="M 6.453125 -18.40625 L 6.453125 -5.359375 C 6.453125 -4.148438 6.703125 -3.273438 7.203125 -2.734375 C 7.703125 -2.203125 8.484375 -1.9375 9.546875 -1.9375 C 10.554688 -1.9375 11.507812 -2.222656 12.40625 -2.796875 C 13.3125 -3.378906 14.015625 -4.066406 14.515625 -4.859375 L 14.515625 -18.40625 L 17.453125 -18.40625 L 17.453125 0 L 14.953125 0 L 14.71875 -2.484375 C 13.988281 -1.546875 13.09375 -0.828125 12.03125 -0.328125 C 10.976562 0.160156 9.910156 0.40625 8.828125 0.40625 C 7.046875 0.40625 5.710938 -0.0664062 4.828125 -1.015625 C 3.953125 -1.972656 3.515625 -3.304688 3.515625 -5.015625 L 3.515625 -18.40625 Z M 6.453125 -18.40625 "/></g></g></g><g fill="#ff66c4" fill-opacity="1"><g transform="translate(355.605592, 188.752164)"><g><path d="M 3.515625 0 L 3.515625 -18.40625 L 6.015625 -18.40625 L 6.234375 -15.84375 C 6.984375 -16.789062 7.921875 -17.515625 9.046875 -18.015625 C 10.171875 -18.523438 11.265625 -18.78125 12.328125 -18.78125 C 14.128906 -18.78125 15.441406 -18.300781 16.265625 -17.34375 C 17.085938 -16.394531 17.5 -15.070312 17.5 -13.375 L 17.5 0 L 14.5625 0 L 14.5625 -11.203125 C 14.5625 -12.460938 14.488281 -13.476562 14.34375 -14.25 C 14.207031 -15.03125 13.914062 -15.597656 13.46875 -15.953125 C 13.03125 -16.304688 12.34375 -16.484375 11.40625 -16.484375 C 10.6875 -16.484375 10.007812 -16.320312 9.375 -16 C 8.738281 -15.6875 8.171875 -15.296875 7.671875 -14.828125 C 7.179688 -14.359375 6.773438 -13.882812 6.453125 -13.40625 L 6.453125 0 Z M 3.515625 0 "/></g></g></g><g fill="#ff66c4" fill-opacity="1"><g transform="translate(376.579818, 188.752164)"><g><path d="M 5.8125 -8.15625 C 5.875 -6.738281 6.148438 -5.578125 6.640625 -4.671875 C 7.128906 -3.773438 7.773438 -3.113281 8.578125 -2.6875 C 9.378906 -2.257812 10.253906 -2.046875 11.203125 -2.046875 C 12.148438 -2.046875 13.003906 -2.1875 13.765625 -2.46875 C 14.523438 -2.75 15.304688 -3.160156 16.109375 -3.703125 L 17.5 -1.765625 C 16.632812 -1.085938 15.648438 -0.554688 14.546875 -0.171875 C 13.441406 0.210938 12.316406 0.40625 11.171875 0.40625 C 9.390625 0.40625 7.867188 0.00390625 6.609375 -0.796875 C 5.347656 -1.609375 4.390625 -2.734375 3.734375 -4.171875 C 3.078125 -5.609375 2.75 -7.273438 2.75 -9.171875 C 2.75 -11.035156 3.078125 -12.691406 3.734375 -14.140625 C 4.398438 -15.585938 5.332031 -16.722656 6.53125 -17.546875 C 7.738281 -18.367188 9.15625 -18.78125 10.78125 -18.78125 C 12.332031 -18.78125 13.664062 -18.414062 14.78125 -17.6875 C 15.90625 -16.96875 16.765625 -15.929688 17.359375 -14.578125 C 17.960938 -13.234375 18.265625 -11.628906 18.265625 -9.765625 C 18.265625 -9.453125 18.257812 -9.15625 18.25 -8.875 C 18.238281 -8.601562 18.21875 -8.363281 18.1875 -8.15625 Z M 10.8125 -16.375 C 9.445312 -16.375 8.304688 -15.890625 7.390625 -14.921875 C 6.484375 -13.953125 5.96875 -12.457031 5.84375 -10.4375 L 15.4375 -10.4375 C 15.394531 -12.40625 14.957031 -13.882812 14.125 -14.875 C 13.300781 -15.875 12.195312 -16.375 10.8125 -16.375 Z M 10.8125 -16.375 "/></g></g></g><g fill="#0cc0df" fill-opacity="1"><g transform="translate(796.078079, 188.752164)"><g><path d="M 14.515625 -26.1875 L 17.453125 -25.8125 L 17.453125 0 L 14.890625 0 L 14.609375 -2.421875 C 13.921875 -1.453125 13.128906 -0.738281 12.234375 -0.28125 C 11.347656 0.175781 10.398438 0.40625 9.390625 0.40625 C 7.785156 0.40625 6.460938 0.00390625 5.421875 -0.796875 C 4.390625 -1.609375 3.625 -2.734375 3.125 -4.171875 C 2.625 -5.609375 2.375 -7.273438 2.375 -9.171875 C 2.375 -11.015625 2.660156 -12.660156 3.234375 -14.109375 C 3.804688 -15.554688 4.628906 -16.695312 5.703125 -17.53125 C 6.785156 -18.363281 8.082031 -18.78125 9.59375 -18.78125 C 10.65625 -18.78125 11.585938 -18.597656 12.390625 -18.234375 C 13.191406 -17.867188 13.898438 -17.332031 14.515625 -16.625 Z M 10.359375 -16.421875 C 8.828125 -16.421875 7.644531 -15.820312 6.8125 -14.625 C 5.988281 -13.425781 5.578125 -11.609375 5.578125 -9.171875 C 5.578125 -7.585938 5.742188 -6.257812 6.078125 -5.1875 C 6.421875 -4.113281 6.921875 -3.304688 7.578125 -2.765625 C 8.234375 -2.234375 9.039062 -1.96875 10 -1.96875 C 11.039062 -1.96875 11.929688 -2.265625 12.671875 -2.859375 C 13.410156 -3.453125 14.023438 -4.125 14.515625 -4.875 L 14.515625 -14.0625 C 14.015625 -14.8125 13.410156 -15.390625 12.703125 -15.796875 C 11.992188 -16.210938 11.210938 -16.421875 10.359375 -16.421875 Z M 10.359375 -16.421875 "/></g></g></g><g fill="#0cc0df" fill-opacity="1"><g transform="translate(817.052305, 188.752164)"><g><path d="M 5.8125 -8.15625 C 5.875 -6.738281 6.148438 -5.578125 6.640625 -4.671875 C 7.128906 -3.773438 7.773438 -3.113281 8.578125 -2.6875 C 9.378906 -2.257812 10.253906 -2.046875 11.203125 -2.046875 C 12.148438 -2.046875 13.003906 -2.1875 13.765625 -2.46875 C 14.523438 -2.75 15.304688 -3.160156 16.109375 -3.703125 L 17.5 -1.765625 C 16.632812 -1.085938 15.648438 -0.554688 14.546875 -0.171875 C 13.441406 0.210938 12.316406 0.40625 11.171875 0.40625 C 9.390625 0.40625 7.867188 0.00390625 6.609375 -0.796875 C 5.347656 -1.609375 4.390625 -2.734375 3.734375 -4.171875 C 3.078125 -5.609375 2.75 -7.273438 2.75 -9.171875 C 2.75 -11.035156 3.078125 -12.691406 3.734375 -14.140625 C 4.398438 -15.585938 5.332031 -16.722656 6.53125 -17.546875 C 7.738281 -18.367188 9.15625 -18.78125 10.78125 -18.78125 C 12.332031 -18.78125 13.664062 -18.414062 14.78125 -17.6875 C 15.90625 -16.96875 16.765625 -15.929688 17.359375 -14.578125 C 17.960938 -13.234375 18.265625 -11.628906 18.265625 -9.765625 C 18.265625 -9.453125 18.257812 -9.15625 18.25 -8.875 C 18.238281 -8.601562 18.21875 -8.363281 18.1875 -8.15625 Z M 10.8125 -16.375 C 9.445312 -16.375 8.304688 -15.890625 7.390625 -14.921875 C 6.484375 -13.953125 5.96875 -12.457031 5.84375 -10.4375 L 15.4375 -10.4375 C 15.394531 -12.40625 14.957031 -13.882812 14.125 -14.875 C 13.300781 -15.875 12.195312 -16.375 10.8125 -16.375 Z M 10.8125 -16.375 "/></g></g></g><g fill="#0cc0df" fill-opacity="1"><g transform="translate(838.026531, 188.752164)"><g><path d="M 18.859375 -18.40625 L 12.15625 0 L 8.75 0 L 2.109375 -18.40625 L 5.21875 -18.40625 L 10.5625 -2.671875 L 15.8125 -18.40625 Z M 18.859375 -18.40625 "/></g></g></g><g clip-path="url(#f67f4d8da2)"><g transform="matrix(1, 0, 0, 1, 0, 83)"><g clip-path="url(#570a83b934)"><g clip-path="url(#8a422990f6)"><g mask="url(#f56aa53da6)"><g><g clip-path="url(#0aa53f521c)"><g clip-path="url(#f245657618)"><path fill="url(#45161de5e3)" d="M 327.492188 2.253906 L 327.492188 187.5 L 487.992188 187.5 L 487.992188 2.253906 Z M 327.492188 2.253906 " fill-rule="nonzero"/></g></g></g></g></g></g></g><g transform="matrix(1, 0, 0, 1, 0, 83)"><g clip-path="url(#94138094e8)"><g clip-path="url(#54fd431d55)"><g mask="url(#c248f0b1b3)"><g><g clip-path="url(#1a418a5739)"><g clip-path="url(#949b481a80)"><path fill="url(#36721c1a05)" d="M 348.496094 2.253906 L 348.496094 187.503906 L 865.988281 187.503906 L 865.988281 2.253906 Z M 348.496094 2.253906 " fill-rule="nonzero"/></g></g></g></g></g></g></g></g><g clip-path="url(#c37d219936)"><path fill="#ff66c4" d="M 218.277344 248.605469 C 218.277344 248.203125 217.875 247.878906 217.375 247.878906 C 216.875 247.878906 216.472656 248.203125 216.472656 248.605469 L 216.472656 273.664062 C 216.472656 274.0625 216.875 274.390625 217.375 274.390625 C 217.875 274.390625 218.277344 274.0625 218.277344 273.664062 Z M 218.277344 248.605469 " fill-opacity="1" fill-rule="evenodd"/></g><g clip-path="url(#3a051dc190)"><path fill="#ff66c4" d="M 294.601562 249.332031 C 295.097656 249.332031 295.503906 249.007812 295.503906 248.605469 C 295.503906 248.207031 295.097656 247.878906 294.601562 247.878906 L 140.148438 247.878906 C 139.648438 247.878906 139.246094 248.207031 139.246094 248.605469 C 139.246094 249.007812 139.648438 249.332031 140.148438 249.332031 Z M 294.601562 249.332031 " fill-opacity="1" fill-rule="evenodd"/></g><g clip-path="url(#c693d5a866)"><path fill="#ff66c4" d="M 139.246094 248.605469 C 139.246094 249.007812 139.648438 249.332031 140.148438 249.332031 C 140.644531 249.332031 141.050781 249.007812 141.050781 248.605469 L 141.050781 216.75 C 141.050781 216.347656 140.644531 216.023438 140.148438 216.023438 C 139.648438 216.023438 139.246094 216.347656 139.246094 216.75 Z M 139.246094 248.605469 " fill-opacity="1" fill-rule="evenodd"/></g><g clip-path="url(#25aaadf97b)"><path fill="#ff66c4" d="M 293.695312 248.605469 C 293.695312 249.007812 294.101562 249.332031 294.597656 249.332031 C 295.097656 249.332031 295.503906 249.007812 295.503906 248.605469 L 295.503906 216.75 C 295.503906 216.347656 295.097656 216.023438 294.597656 216.023438 C 294.101562 216.023438 293.695312 216.347656 293.695312 216.75 Z M 293.695312 248.605469 " fill-opacity="1" fill-rule="evenodd"/></g><g clip-path="url(#9fb885be51)"><path fill="#0cc0df" d="M 670.296875 248.605469 C 670.296875 248.203125 669.890625 247.878906 669.390625 247.878906 C 668.894531 247.878906 668.488281 248.203125 668.488281 248.605469 L 668.488281 273.664062 C 668.488281 274.0625 668.894531 274.390625 669.390625 274.390625 C 669.890625 274.390625 670.296875 274.0625 670.296875 273.664062 Z M 670.296875 248.605469 " fill-opacity="1" fill-rule="evenodd"/></g><g clip-path="url(#ecef18720f)"><path fill="#0cc0df" d="M 746.617188 249.332031 C 747.117188 249.332031 747.523438 249.007812 747.523438 248.605469 C 747.523438 248.207031 747.117188 247.878906 746.617188 247.878906 L 592.167969 247.878906 C 591.667969 247.878906 591.261719 248.207031 591.261719 248.605469 C 591.261719 249.007812 591.667969 249.332031 592.167969 249.332031 Z M 746.617188 249.332031 " fill-opacity="1" fill-rule="evenodd"/></g><g clip-path="url(#03db53f2d0)"><path fill="#0cc0df" d="M 591.261719 248.605469 C 591.261719 249.007812 591.667969 249.332031 592.167969 249.332031 C 592.664062 249.332031 593.070312 249.007812 593.070312 248.605469 L 593.070312 216.75 C 593.070312 216.347656 592.664062 216.023438 592.167969 216.023438 C 591.667969 216.023438 591.261719 216.347656 591.261719 216.75 Z M 591.261719 248.605469 " fill-opacity="1" fill-rule="evenodd"/></g><g clip-path="url(#9bae157e3f)"><path fill="#0cc0df" d="M 745.714844 248.605469 C 745.714844 249.007812 746.121094 249.332031 746.617188 249.332031 C 747.117188 249.332031 747.519531 249.007812 747.519531 248.605469 L 747.519531 216.75 C 747.519531 216.347656 747.117188 216.023438 746.617188 216.023438 C 746.121094 216.023438 745.714844 216.347656 745.714844 216.75 Z M 745.714844 248.605469 " fill-opacity="1" fill-rule="evenodd"/></g><g fill="#ffffff" fill-opacity="1"><g transform="translate(173.447771, 310.202232)"><g><path d="M 0.9375 0 L 2.3125 -15.046875 L 3.96875 -15.046875 L 6.625 -6.515625 L 9.234375 -15.046875 L 10.890625 -15.046875 L 12.265625 0 L 10.65625 0 L 9.65625 -10.921875 L 7 -2.265625 L 6.234375 -2.265625 L 3.546875 -10.953125 L 2.546875 0 Z M 0.9375 0 "/></g></g></g><g fill="#ffffff" fill-opacity="1"><g transform="translate(186.64758, 310.202232)"><g><path d="M 8.109375 1.4375 C 7.847656 2.238281 7.410156 2.859375 6.796875 3.296875 C 6.191406 3.742188 5.46875 3.96875 4.625 3.96875 L 4.296875 3.96875 C 3.796875 3.96875 3.242188 3.835938 2.640625 3.578125 C 2.035156 3.316406 1.570312 2.96875 1.25 2.53125 L 1.078125 2.296875 L 2.390625 1.359375 L 2.5625 1.578125 C 2.6875 1.753906 2.925781 1.925781 3.28125 2.09375 C 3.644531 2.269531 3.984375 2.359375 4.296875 2.359375 L 4.625 2.359375 C 5.613281 2.359375 6.265625 1.878906 6.578125 0.921875 L 7.234375 -1.078125 L 1.390625 -11 L 3.25 -11 L 7.921875 -3.109375 L 10.53125 -11 L 12.234375 -11 Z M 8.109375 1.4375 "/></g></g></g><g fill="#ffffff" fill-opacity="1"><g transform="translate(199.847389, 310.202232)"><g><path d="M 10.59375 0.1875 L 10.59375 1.796875 L 2.625 1.796875 L 2.625 0.1875 Z M 10.59375 0.1875 "/></g></g></g><g fill="#ffffff" fill-opacity="1"><g transform="translate(213.047198, 310.202232)"><g><path d="M 3.015625 0 L 1.390625 0 L 1.390625 -15.046875 L 2.8125 -15.046875 L 10.1875 -3.34375 L 10.1875 -15.046875 L 11.8125 -15.046875 L 11.8125 0 L 10.40625 0 L 3.015625 -11.71875 Z M 3.015625 0 "/></g></g></g><g fill="#ffffff" fill-opacity="1"><g transform="translate(226.247008, 310.202232)"><g><path d="M 6.75 -1.34375 C 7.15625 -1.34375 7.550781 -1.398438 7.9375 -1.515625 C 8.320312 -1.628906 8.644531 -1.769531 8.90625 -1.9375 C 9.164062 -2.101562 9.394531 -2.273438 9.59375 -2.453125 C 9.800781 -2.640625 9.953125 -2.804688 10.046875 -2.953125 C 10.140625 -3.097656 10.1875 -3.195312 10.1875 -3.25 L 10.1875 -5.21875 L 6.484375 -5.21875 C 5.960938 -5.21875 5.492188 -5.171875 5.078125 -5.078125 C 4.660156 -4.992188 4.328125 -4.882812 4.078125 -4.75 C 3.828125 -4.625 3.617188 -4.484375 3.453125 -4.328125 C 3.285156 -4.171875 3.171875 -4.03125 3.109375 -3.90625 C 3.046875 -3.789062 3.015625 -3.695312 3.015625 -3.625 L 3.015625 -3 C 3.015625 -2.863281 3.082031 -2.703125 3.21875 -2.515625 C 3.363281 -2.335938 3.570312 -2.15625 3.84375 -1.96875 C 4.113281 -1.789062 4.476562 -1.640625 4.9375 -1.515625 C 5.40625 -1.398438 5.921875 -1.34375 6.484375 -1.34375 Z M 1.390625 -3.625 C 1.390625 -3.96875 1.488281 -4.316406 1.6875 -4.671875 C 1.882812 -5.023438 2.171875 -5.367188 2.546875 -5.703125 C 2.929688 -6.035156 3.460938 -6.304688 4.140625 -6.515625 C 4.828125 -6.722656 5.609375 -6.828125 6.484375 -6.828125 L 10.1875 -6.828125 L 10.1875 -7.40625 C 10.1875 -8.90625 9.039062 -9.65625 6.75 -9.65625 L 6.484375 -9.65625 C 4.804688 -9.65625 3.734375 -9.28125 3.265625 -8.53125 L 1.890625 -9.390625 C 2.679688 -10.640625 4.210938 -11.265625 6.484375 -11.265625 L 6.75 -11.265625 C 7.550781 -11.265625 8.257812 -11.175781 8.875 -11 C 9.5 -10.832031 9.988281 -10.617188 10.34375 -10.359375 C 10.707031 -10.097656 11.003906 -9.785156 11.234375 -9.421875 C 11.460938 -9.066406 11.613281 -8.726562 11.6875 -8.40625 C 11.769531 -8.082031 11.8125 -7.75 11.8125 -7.40625 L 11.8125 0 L 10.1875 0 L 10.1875 -0.90625 C 9.101562 -0.125 7.957031 0.265625 6.75 0.265625 L 6.484375 0.265625 C 5.609375 0.265625 4.789062 0.144531 4.03125 -0.09375 C 3.28125 -0.332031 2.648438 -0.707031 2.140625 -1.21875 C 1.640625 -1.726562 1.390625 -2.320312 1.390625 -3 Z M 1.390625 -3.625 "/></g></g></g><g fill="#ffffff" fill-opacity="1"><g transform="translate(239.446817, 310.202232)"><g><path d="M 10.84375 -8.375 C 10.84375 -8.769531 10.742188 -9.082031 10.546875 -9.3125 C 10.347656 -9.539062 10.003906 -9.65625 9.515625 -9.65625 L 9.359375 -9.65625 C 8.859375 -9.65625 8.410156 -9.414062 8.015625 -8.9375 C 7.617188 -8.457031 7.421875 -7.945312 7.421875 -7.40625 L 7.421875 0 L 5.8125 0 L 5.8125 -8.375 C 5.8125 -8.789062 5.707031 -9.109375 5.5 -9.328125 C 5.300781 -9.546875 4.960938 -9.65625 4.484375 -9.65625 L 4.3125 -9.65625 C 3.8125 -9.65625 3.363281 -9.414062 2.96875 -8.9375 C 2.582031 -8.457031 2.390625 -7.945312 2.390625 -7.40625 L 2.390625 0 L 0.78125 0 L 0.78125 -11 L 2.390625 -11 L 2.390625 -10.59375 C 2.984375 -11.039062 3.625 -11.265625 4.3125 -11.265625 L 4.484375 -11.265625 C 5.585938 -11.265625 6.398438 -10.890625 6.921875 -10.140625 C 7.617188 -10.890625 8.429688 -11.265625 9.359375 -11.265625 L 9.515625 -11.265625 C 10.421875 -11.265625 11.132812 -11.003906 11.65625 -10.484375 C 12.1875 -9.960938 12.453125 -9.257812 12.453125 -8.375 L 12.453125 0 L 10.84375 0 Z M 10.84375 -8.375 "/></g></g></g><g fill="#ffffff" fill-opacity="1"><g transform="translate(252.646626, 310.202232)"><g><path d="M 3.015625 -5.21875 L 3.015625 -3.9375 C 3.015625 -3.644531 3.082031 -3.351562 3.21875 -3.0625 C 3.351562 -2.769531 3.550781 -2.492188 3.8125 -2.234375 C 4.082031 -1.972656 4.445312 -1.757812 4.90625 -1.59375 C 5.375 -1.425781 5.898438 -1.34375 6.484375 -1.34375 L 6.75 -1.34375 C 6.914062 -1.34375 7.078125 -1.34375 7.234375 -1.34375 C 7.390625 -1.351562 7.628906 -1.382812 7.953125 -1.4375 C 8.273438 -1.5 8.554688 -1.570312 8.796875 -1.65625 C 9.046875 -1.75 9.296875 -1.894531 9.546875 -2.09375 C 9.796875 -2.289062 9.96875 -2.519531 10.0625 -2.78125 L 11.5625 -2.203125 C 11.269531 -1.429688 10.710938 -0.828125 9.890625 -0.390625 C 9.066406 0.046875 8.019531 0.265625 6.75 0.265625 L 6.484375 0.265625 C 5.703125 0.265625 4.984375 0.144531 4.328125 -0.09375 C 3.671875 -0.34375 3.128906 -0.664062 2.703125 -1.0625 C 2.285156 -1.457031 1.960938 -1.898438 1.734375 -2.390625 C 1.503906 -2.890625 1.390625 -3.40625 1.390625 -3.9375 L 1.390625 -7.078125 C 1.390625 -8.304688 1.835938 -9.3125 2.734375 -10.09375 C 3.628906 -10.875 4.878906 -11.265625 6.484375 -11.265625 L 6.75 -11.265625 C 8.34375 -11.265625 9.582031 -10.875 10.46875 -10.09375 C 11.363281 -9.3125 11.8125 -8.304688 11.8125 -7.078125 L 11.8125 -5.21875 Z M 10.1875 -6.828125 L 10.1875 -7.078125 C 10.1875 -7.847656 9.898438 -8.46875 9.328125 -8.9375 C 8.753906 -9.414062 7.894531 -9.65625 6.75 -9.65625 L 6.484375 -9.65625 C 5.335938 -9.65625 4.472656 -9.414062 3.890625 -8.9375 C 3.304688 -8.46875 3.015625 -7.847656 3.015625 -7.078125 L 3.015625 -6.828125 Z M 10.1875 -6.828125 "/></g></g></g><g fill="#ffffff" fill-opacity="1"><g transform="translate(619.496515, 310.202232)"><g><path d="M 0.9375 0 L 2.3125 -15.046875 L 3.96875 -15.046875 L 6.625 -6.515625 L 9.234375 -15.046875 L 10.890625 -15.046875 L 12.265625 0 L 10.65625 0 L 9.65625 -10.921875 L 7 -2.265625 L 6.234375 -2.265625 L 3.546875 -10.953125 L 2.546875 0 Z M 0.9375 0 "/></g></g></g><g fill="#ffffff" fill-opacity="1"><g transform="translate(632.696324, 310.202232)"><g><path d="M 8.109375 1.4375 C 7.847656 2.238281 7.410156 2.859375 6.796875 3.296875 C 6.191406 3.742188 5.46875 3.96875 4.625 3.96875 L 4.296875 3.96875 C 3.796875 3.96875 3.242188 3.835938 2.640625 3.578125 C 2.035156 3.316406 1.570312 2.96875 1.25 2.53125 L 1.078125 2.296875 L 2.390625 1.359375 L 2.5625 1.578125 C 2.6875 1.753906 2.925781 1.925781 3.28125 2.09375 C 3.644531 2.269531 3.984375 2.359375 4.296875 2.359375 L 4.625 2.359375 C 5.613281 2.359375 6.265625 1.878906 6.578125 0.921875 L 7.234375 -1.078125 L 1.390625 -11 L 3.25 -11 L 7.921875 -3.109375 L 10.53125 -11 L 12.234375 -11 Z M 8.109375 1.4375 "/></g></g></g><g fill="#ffffff" fill-opacity="1"><g transform="translate(645.896133, 310.202232)"><g><path d="M 10.59375 0.1875 L 10.59375 1.796875 L 2.625 1.796875 L 2.625 0.1875 Z M 10.59375 0.1875 "/></g></g></g><g fill="#ffffff" fill-opacity="1"><g transform="translate(659.095943, 310.202232)"><g><path d="M 6.484375 -1.34375 L 6.75 -1.34375 C 7.71875 -1.34375 8.53125 -1.601562 9.1875 -2.125 C 9.851562 -2.65625 10.1875 -3.222656 10.1875 -3.828125 L 10.1875 -4.15625 C 10.1875 -4.695312 10.054688 -5.160156 9.796875 -5.546875 C 9.535156 -5.941406 9.0625 -6.257812 8.375 -6.5 L 4.234375 -7.9375 C 3.816406 -8.082031 3.457031 -8.300781 3.15625 -8.59375 C 2.851562 -8.882812 2.632812 -9.195312 2.5 -9.53125 C 2.363281 -9.863281 2.269531 -10.15625 2.21875 -10.40625 C 2.164062 -10.664062 2.140625 -10.894531 2.140625 -11.09375 L 2.140625 -11.421875 C 2.140625 -11.859375 2.238281 -12.300781 2.4375 -12.75 C 2.632812 -13.207031 2.910156 -13.628906 3.265625 -14.015625 C 3.617188 -14.398438 4.085938 -14.710938 4.671875 -14.953125 C 5.253906 -15.191406 5.890625 -15.3125 6.578125 -15.3125 L 6.6875 -15.3125 C 9.1875 -15.3125 10.78125 -14.535156 11.46875 -12.984375 L 10.015625 -12.3125 C 9.609375 -13.238281 8.5 -13.703125 6.6875 -13.703125 L 6.578125 -13.703125 C 6.097656 -13.703125 5.664062 -13.617188 5.28125 -13.453125 C 4.90625 -13.296875 4.609375 -13.097656 4.390625 -12.859375 C 4.179688 -12.617188 4.019531 -12.375 3.90625 -12.125 C 3.800781 -11.875 3.75 -11.640625 3.75 -11.421875 L 3.75 -11.09375 C 3.75 -10.851562 3.847656 -10.546875 4.046875 -10.171875 C 4.253906 -9.796875 4.492188 -9.5625 4.765625 -9.46875 L 8.921875 -8.03125 C 9.203125 -7.925781 9.472656 -7.804688 9.734375 -7.671875 C 9.992188 -7.535156 10.253906 -7.351562 10.515625 -7.125 C 10.773438 -6.90625 10.992188 -6.660156 11.171875 -6.390625 C 11.359375 -6.117188 11.507812 -5.789062 11.625 -5.40625 C 11.75 -5.019531 11.8125 -4.601562 11.8125 -4.15625 L 11.8125 -3.828125 C 11.8125 -3.316406 11.679688 -2.8125 11.421875 -2.3125 C 11.160156 -1.8125 10.8125 -1.375 10.375 -1 C 9.9375 -0.625 9.398438 -0.316406 8.765625 -0.078125 C 8.128906 0.148438 7.457031 0.265625 6.75 0.265625 L 6.484375 0.265625 C 5.753906 0.265625 5.066406 0.148438 4.421875 -0.078125 C 3.773438 -0.316406 3.234375 -0.625 2.796875 -1 C 2.359375 -1.382812 2.007812 -1.820312 1.75 -2.3125 C 1.5 -2.8125 1.375 -3.316406 1.375 -3.828125 L 2.984375 -3.828125 C 2.984375 -3.210938 3.3125 -2.644531 3.96875 -2.125 C 4.632812 -1.601562 5.472656 -1.34375 6.484375 -1.34375 Z M 6.484375 -1.34375 "/></g></g></g><g fill="#ffffff" fill-opacity="1"><g transform="translate(672.295752, 310.202232)"><g><path d="M 3.171875 -11 L 7.421875 -11 L 7.421875 -1.609375 L 11 -1.609375 L 11 0 L 2.203125 0 L 2.203125 -1.609375 L 5.8125 -1.609375 L 5.8125 -9.390625 L 3.171875 -9.390625 Z M 5.6875 -12.953125 C 5.425781 -13.222656 5.296875 -13.550781 5.296875 -13.9375 C 5.296875 -14.320312 5.425781 -14.648438 5.6875 -14.921875 C 5.957031 -15.191406 6.285156 -15.328125 6.671875 -15.328125 C 7.054688 -15.328125 7.382812 -15.191406 7.65625 -14.921875 C 7.9375 -14.648438 8.078125 -14.320312 8.078125 -13.9375 C 8.078125 -13.5625 7.9375 -13.234375 7.65625 -12.953125 C 7.382812 -12.679688 7.054688 -12.546875 6.671875 -12.546875 C 6.285156 -12.546875 5.957031 -12.679688 5.6875 -12.953125 Z M 5.6875 -12.953125 "/></g></g></g><g fill="#ffffff" fill-opacity="1"><g transform="translate(685.495561, 310.202232)"><g><path d="M 5.515625 -3.359375 C 5.515625 -3.003906 5.582031 -2.6875 5.71875 -2.40625 C 5.863281 -2.132812 6.046875 -1.925781 6.265625 -1.78125 C 6.484375 -1.632812 6.703125 -1.523438 6.921875 -1.453125 C 7.148438 -1.378906 7.367188 -1.34375 7.578125 -1.34375 L 7.859375 -1.34375 C 8.296875 -1.34375 8.675781 -1.460938 9 -1.703125 C 9.332031 -1.953125 9.570312 -2.242188 9.71875 -2.578125 L 11.203125 -1.9375 C 10.953125 -1.363281 10.53125 -0.851562 9.9375 -0.40625 C 9.351562 0.0390625 8.660156 0.265625 7.859375 0.265625 L 7.578125 0.265625 C 6.597656 0.265625 5.738281 -0.0703125 5 -0.75 C 4.269531 -1.425781 3.90625 -2.25 3.90625 -3.21875 L 4.375 -9.21875 L 1.40625 -9.21875 L 1.40625 -10.828125 L 4.484375 -10.828125 L 4.84375 -15.3125 L 6.46875 -15.3125 L 6.109375 -10.828125 L 9.921875 -10.828125 L 9.921875 -9.21875 L 5.984375 -9.21875 Z M 5.515625 -3.359375 "/></g></g></g><g fill="#ffffff" fill-opacity="1"><g transform="translate(698.69537, 310.202232)"><g><path d="M 3.015625 -5.21875 L 3.015625 -3.9375 C 3.015625 -3.644531 3.082031 -3.351562 3.21875 -3.0625 C 3.351562 -2.769531 3.550781 -2.492188 3.8125 -2.234375 C 4.082031 -1.972656 4.445312 -1.757812 4.90625 -1.59375 C 5.375 -1.425781 5.898438 -1.34375 6.484375 -1.34375 L 6.75 -1.34375 C 6.914062 -1.34375 7.078125 -1.34375 7.234375 -1.34375 C 7.390625 -1.351562 7.628906 -1.382812 7.953125 -1.4375 C 8.273438 -1.5 8.554688 -1.570312 8.796875 -1.65625 C 9.046875 -1.75 9.296875 -1.894531 9.546875 -2.09375 C 9.796875 -2.289062 9.96875 -2.519531 10.0625 -2.78125 L 11.5625 -2.203125 C 11.269531 -1.429688 10.710938 -0.828125 9.890625 -0.390625 C 9.066406 0.046875 8.019531 0.265625 6.75 0.265625 L 6.484375 0.265625 C 5.703125 0.265625 4.984375 0.144531 4.328125 -0.09375 C 3.671875 -0.34375 3.128906 -0.664062 2.703125 -1.0625 C 2.285156 -1.457031 1.960938 -1.898438 1.734375 -2.390625 C 1.503906 -2.890625 1.390625 -3.40625 1.390625 -3.9375 L 1.390625 -7.078125 C 1.390625 -8.304688 1.835938 -9.3125 2.734375 -10.09375 C 3.628906 -10.875 4.878906 -11.265625 6.484375 -11.265625 L 6.75 -11.265625 C 8.34375 -11.265625 9.582031 -10.875 10.46875 -10.09375 C 11.363281 -9.3125 11.8125 -8.304688 11.8125 -7.078125 L 11.8125 -5.21875 Z M 10.1875 -6.828125 L 10.1875 -7.078125 C 10.1875 -7.847656 9.898438 -8.46875 9.328125 -8.9375 C 8.753906 -9.414062 7.894531 -9.65625 6.75 -9.65625 L 6.484375 -9.65625 C 5.335938 -9.65625 4.472656 -9.414062 3.890625 -8.9375 C 3.304688 -8.46875 3.015625 -7.847656 3.015625 -7.078125 L 3.015625 -6.828125 Z M 10.1875 -6.828125 "/></g></g></g><g fill="#ffffff" fill-opacity="1"><g transform="translate(425.707015, 62.547758)"><g><path d="M 0.9375 0 L 2.3125 -15.046875 L 3.96875 -15.046875 L 6.625 -6.515625 L 9.234375 -15.046875 L 10.890625 -15.046875 L 12.265625 0 L 10.65625 0 L 9.65625 -10.921875 L 7 -2.265625 L 6.234375 -2.265625 L 3.546875 -10.953125 L 2.546875 0 Z M 0.9375 0 "/></g></g></g><g fill="#ffffff" fill-opacity="1"><g transform="translate(438.906825, 62.547758)"><g><path d="M 8.109375 1.4375 C 7.847656 2.238281 7.410156 2.859375 6.796875 3.296875 C 6.191406 3.742188 5.46875 3.96875 4.625 3.96875 L 4.296875 3.96875 C 3.796875 3.96875 3.242188 3.835938 2.640625 3.578125 C 2.035156 3.316406 1.570312 2.96875 1.25 2.53125 L 1.078125 2.296875 L 2.390625 1.359375 L 2.5625 1.578125 C 2.6875 1.753906 2.925781 1.925781 3.28125 2.09375 C 3.644531 2.269531 3.984375 2.359375 4.296875 2.359375 L 4.625 2.359375 C 5.613281 2.359375 6.265625 1.878906 6.578125 0.921875 L 7.234375 -1.078125 L 1.390625 -11 L 3.25 -11 L 7.921875 -3.109375 L 10.53125 -11 L 12.234375 -11 Z M 8.109375 1.4375 "/></g></g></g><g fill="#ffffff" fill-opacity="1"><g transform="translate(452.106634, 62.547758)"><g><path d="M 10.59375 0.1875 L 10.59375 1.796875 L 2.625 1.796875 L 2.625 0.1875 Z M 10.59375 0.1875 "/></g></g></g><g fill="#ffffff" fill-opacity="1"><g transform="translate(465.306443, 62.547758)"><g><path d="M 6.484375 -1.34375 L 6.75 -1.34375 C 7.71875 -1.34375 8.53125 -1.601562 9.1875 -2.125 C 9.851562 -2.65625 10.1875 -3.222656 10.1875 -3.828125 L 10.1875 -4.15625 C 10.1875 -4.695312 10.054688 -5.160156 9.796875 -5.546875 C 9.535156 -5.941406 9.0625 -6.257812 8.375 -6.5 L 4.234375 -7.9375 C 3.816406 -8.082031 3.457031 -8.300781 3.15625 -8.59375 C 2.851562 -8.882812 2.632812 -9.195312 2.5 -9.53125 C 2.363281 -9.863281 2.269531 -10.15625 2.21875 -10.40625 C 2.164062 -10.664062 2.140625 -10.894531 2.140625 -11.09375 L 2.140625 -11.421875 C 2.140625 -11.859375 2.238281 -12.300781 2.4375 -12.75 C 2.632812 -13.207031 2.910156 -13.628906 3.265625 -14.015625 C 3.617188 -14.398438 4.085938 -14.710938 4.671875 -14.953125 C 5.253906 -15.191406 5.890625 -15.3125 6.578125 -15.3125 L 6.6875 -15.3125 C 9.1875 -15.3125 10.78125 -14.535156 11.46875 -12.984375 L 10.015625 -12.3125 C 9.609375 -13.238281 8.5 -13.703125 6.6875 -13.703125 L 6.578125 -13.703125 C 6.097656 -13.703125 5.664062 -13.617188 5.28125 -13.453125 C 4.90625 -13.296875 4.609375 -13.097656 4.390625 -12.859375 C 4.179688 -12.617188 4.019531 -12.375 3.90625 -12.125 C 3.800781 -11.875 3.75 -11.640625 3.75 -11.421875 L 3.75 -11.09375 C 3.75 -10.851562 3.847656 -10.546875 4.046875 -10.171875 C 4.253906 -9.796875 4.492188 -9.5625 4.765625 -9.46875 L 8.921875 -8.03125 C 9.203125 -7.925781 9.472656 -7.804688 9.734375 -7.671875 C 9.992188 -7.535156 10.253906 -7.351562 10.515625 -7.125 C 10.773438 -6.90625 10.992188 -6.660156 11.171875 -6.390625 C 11.359375 -6.117188 11.507812 -5.789062 11.625 -5.40625 C 11.75 -5.019531 11.8125 -4.601562 11.8125 -4.15625 L 11.8125 -3.828125 C 11.8125 -3.316406 11.679688 -2.8125 11.421875 -2.3125 C 11.160156 -1.8125 10.8125 -1.375 10.375 -1 C 9.9375 -0.625 9.398438 -0.316406 8.765625 -0.078125 C 8.128906 0.148438 7.457031 0.265625 6.75 0.265625 L 6.484375 0.265625 C 5.753906 0.265625 5.066406 0.148438 4.421875 -0.078125 C 3.773438 -0.316406 3.234375 -0.625 2.796875 -1 C 2.359375 -1.382812 2.007812 -1.820312 1.75 -2.3125 C 1.5 -2.8125 1.375 -3.316406 1.375 -3.828125 L 2.984375 -3.828125 C 2.984375 -3.210938 3.3125 -2.644531 3.96875 -2.125 C 4.632812 -1.601562 5.472656 -1.34375 6.484375 -1.34375 Z M 6.484375 -1.34375 "/></g></g></g><g fill="#ffffff" fill-opacity="1"><g transform="translate(478.506252, 62.547758)"><g><path d="M 11.8125 -6.03125 L 11.8125 -5.15625 C 11.8125 -4.363281 11.707031 -3.644531 11.5 -3 C 11.300781 -2.351562 11.003906 -1.78125 10.609375 -1.28125 C 10.210938 -0.789062 9.691406 -0.410156 9.046875 -0.140625 C 8.410156 0.128906 7.675781 0.265625 6.84375 0.265625 L 6.296875 0.265625 C 5.472656 0.265625 4.742188 0.128906 4.109375 -0.140625 C 3.472656 -0.421875 2.957031 -0.8125 2.5625 -1.3125 C 2.175781 -1.8125 1.882812 -2.382812 1.6875 -3.03125 C 1.488281 -3.675781 1.390625 -4.390625 1.390625 -5.171875 L 1.390625 -6.03125 C 1.390625 -7.601562 1.804688 -8.867188 2.640625 -9.828125 C 3.472656 -10.785156 4.6875 -11.265625 6.28125 -11.265625 L 6.890625 -11.265625 C 8.492188 -11.265625 9.710938 -10.785156 10.546875 -9.828125 C 11.390625 -8.878906 11.8125 -7.613281 11.8125 -6.03125 Z M 6.890625 -9.640625 L 6.28125 -9.640625 C 4.101562 -9.640625 3.015625 -8.4375 3.015625 -6.03125 L 3.015625 -5.171875 C 3.015625 -4.765625 3.039062 -4.390625 3.09375 -4.046875 C 3.15625 -3.703125 3.257812 -3.359375 3.40625 -3.015625 C 3.5625 -2.671875 3.757812 -2.378906 4 -2.140625 C 4.238281 -1.898438 4.550781 -1.707031 4.9375 -1.5625 C 5.332031 -1.414062 5.785156 -1.34375 6.296875 -1.34375 L 6.84375 -1.34375 C 9.070312 -1.34375 10.1875 -2.613281 10.1875 -5.15625 L 10.1875 -6.03125 C 10.1875 -8.4375 9.085938 -9.640625 6.890625 -9.640625 Z M 6.890625 -9.640625 "/></g></g></g><g fill="#ffffff" fill-opacity="1"><g transform="translate(491.706062, 62.547758)"><g><path d="M 6.75 -9.640625 L 6.484375 -9.640625 C 5.347656 -9.640625 4.484375 -9.359375 3.890625 -8.796875 C 3.304688 -8.242188 3.015625 -7.445312 3.015625 -6.40625 L 3.015625 -4.59375 C 3.015625 -3.625 3.34375 -2.835938 4 -2.234375 C 4.664062 -1.640625 5.492188 -1.34375 6.484375 -1.34375 L 6.75 -1.34375 C 7.550781 -1.34375 8.242188 -1.453125 8.828125 -1.671875 C 9.410156 -1.898438 9.816406 -2.242188 10.046875 -2.703125 L 11.484375 -1.984375 C 11.128906 -1.253906 10.539062 -0.695312 9.71875 -0.3125 C 8.90625 0.0703125 7.914062 0.265625 6.75 0.265625 L 6.484375 0.265625 C 5.546875 0.265625 4.691406 0.0664062 3.921875 -0.328125 C 3.148438 -0.734375 2.535156 -1.3125 2.078125 -2.0625 C 1.617188 -2.8125 1.390625 -3.65625 1.390625 -4.59375 L 1.390625 -6.40625 C 1.390625 -7.84375 1.828125 -9.007812 2.703125 -9.90625 C 3.585938 -10.8125 4.847656 -11.265625 6.484375 -11.265625 L 6.75 -11.265625 C 9.269531 -11.265625 10.859375 -10.519531 11.515625 -9.03125 L 10.03125 -8.375 C 9.65625 -9.21875 8.5625 -9.640625 6.75 -9.640625 Z M 6.75 -9.640625 "/></g></g></g><g fill="#ffffff" fill-opacity="1"><g transform="translate(504.905871, 62.547758)"><g><path d="M 3.171875 -11 L 7.421875 -11 L 7.421875 -1.609375 L 11 -1.609375 L 11 0 L 2.203125 0 L 2.203125 -1.609375 L 5.8125 -1.609375 L 5.8125 -9.390625 L 3.171875 -9.390625 Z M 5.6875 -12.953125 C 5.425781 -13.222656 5.296875 -13.550781 5.296875 -13.9375 C 5.296875 -14.320312 5.425781 -14.648438 5.6875 -14.921875 C 5.957031 -15.191406 6.285156 -15.328125 6.671875 -15.328125 C 7.054688 -15.328125 7.382812 -15.191406 7.65625 -14.921875 C 7.9375 -14.648438 8.078125 -14.320312 8.078125 -13.9375 C 8.078125 -13.5625 7.9375 -13.234375 7.65625 -12.953125 C 7.382812 -12.679688 7.054688 -12.546875 6.671875 -12.546875 C 6.285156 -12.546875 5.957031 -12.679688 5.6875 -12.953125 Z M 5.6875 -12.953125 "/></g></g></g><g fill="#ffffff" fill-opacity="1"><g transform="translate(518.10568, 62.547758)"><g><path d="M 6.75 -1.34375 C 7.15625 -1.34375 7.550781 -1.398438 7.9375 -1.515625 C 8.320312 -1.628906 8.644531 -1.769531 8.90625 -1.9375 C 9.164062 -2.101562 9.394531 -2.273438 9.59375 -2.453125 C 9.800781 -2.640625 9.953125 -2.804688 10.046875 -2.953125 C 10.140625 -3.097656 10.1875 -3.195312 10.1875 -3.25 L 10.1875 -5.21875 L 6.484375 -5.21875 C 5.960938 -5.21875 5.492188 -5.171875 5.078125 -5.078125 C 4.660156 -4.992188 4.328125 -4.882812 4.078125 -4.75 C 3.828125 -4.625 3.617188 -4.484375 3.453125 -4.328125 C 3.285156 -4.171875 3.171875 -4.03125 3.109375 -3.90625 C 3.046875 -3.789062 3.015625 -3.695312 3.015625 -3.625 L 3.015625 -3 C 3.015625 -2.863281 3.082031 -2.703125 3.21875 -2.515625 C 3.363281 -2.335938 3.570312 -2.15625 3.84375 -1.96875 C 4.113281 -1.789062 4.476562 -1.640625 4.9375 -1.515625 C 5.40625 -1.398438 5.921875 -1.34375 6.484375 -1.34375 Z M 1.390625 -3.625 C 1.390625 -3.96875 1.488281 -4.316406 1.6875 -4.671875 C 1.882812 -5.023438 2.171875 -5.367188 2.546875 -5.703125 C 2.929688 -6.035156 3.460938 -6.304688 4.140625 -6.515625 C 4.828125 -6.722656 5.609375 -6.828125 6.484375 -6.828125 L 10.1875 -6.828125 L 10.1875 -7.40625 C 10.1875 -8.90625 9.039062 -9.65625 6.75 -9.65625 L 6.484375 -9.65625 C 4.804688 -9.65625 3.734375 -9.28125 3.265625 -8.53125 L 1.890625 -9.390625 C 2.679688 -10.640625 4.210938 -11.265625 6.484375 -11.265625 L 6.75 -11.265625 C 7.550781 -11.265625 8.257812 -11.175781 8.875 -11 C 9.5 -10.832031 9.988281 -10.617188 10.34375 -10.359375 C 10.707031 -10.097656 11.003906 -9.785156 11.234375 -9.421875 C 11.460938 -9.066406 11.613281 -8.726562 11.6875 -8.40625 C 11.769531 -8.082031 11.8125 -7.75 11.8125 -7.40625 L 11.8125 0 L 10.1875 0 L 10.1875 -0.90625 C 9.101562 -0.125 7.957031 0.265625 6.75 0.265625 L 6.484375 0.265625 C 5.609375 0.265625 4.789062 0.144531 4.03125 -0.09375 C 3.28125 -0.332031 2.648438 -0.707031 2.140625 -1.21875 C 1.640625 -1.726562 1.390625 -2.320312 1.390625 -3 Z M 1.390625 -3.625 "/></g></g></g><g fill="#ffffff" fill-opacity="1"><g transform="translate(531.305489, 62.547758)"><g><path d="M 2.203125 -15.046875 L 7.421875 -15.046875 L 7.421875 -1.609375 L 11 -1.609375 L 11 0 L 2.203125 0 L 2.203125 -1.609375 L 5.8125 -1.609375 L 5.8125 -13.421875 L 2.203125 -13.421875 Z M 2.203125 -15.046875 "/></g></g></g><g fill="#ffffff" fill-opacity="1"><g transform="translate(544.505298, 62.547758)"><g><path d="M 0.9375 0 L 2.3125 -15.046875 L 3.96875 -15.046875 L 6.625 -6.515625 L 9.234375 -15.046875 L 10.890625 -15.046875 L 12.265625 0 L 10.65625 0 L 9.65625 -10.921875 L 7 -2.265625 L 6.234375 -2.265625 L 3.546875 -10.953125 L 2.546875 0 Z M 0.9375 0 "/></g></g></g><g fill="#ffffff" fill-opacity="1"><g transform="translate(557.705108, 62.547758)"><g><path d="M 3.015625 -5.21875 L 3.015625 -3.9375 C 3.015625 -3.644531 3.082031 -3.351562 3.21875 -3.0625 C 3.351562 -2.769531 3.550781 -2.492188 3.8125 -2.234375 C 4.082031 -1.972656 4.445312 -1.757812 4.90625 -1.59375 C 5.375 -1.425781 5.898438 -1.34375 6.484375 -1.34375 L 6.75 -1.34375 C 6.914062 -1.34375 7.078125 -1.34375 7.234375 -1.34375 C 7.390625 -1.351562 7.628906 -1.382812 7.953125 -1.4375 C 8.273438 -1.5 8.554688 -1.570312 8.796875 -1.65625 C 9.046875 -1.75 9.296875 -1.894531 9.546875 -2.09375 C 9.796875 -2.289062 9.96875 -2.519531 10.0625 -2.78125 L 11.5625 -2.203125 C 11.269531 -1.429688 10.710938 -0.828125 9.890625 -0.390625 C 9.066406 0.046875 8.019531 0.265625 6.75 0.265625 L 6.484375 0.265625 C 5.703125 0.265625 4.984375 0.144531 4.328125 -0.09375 C 3.671875 -0.34375 3.128906 -0.664062 2.703125 -1.0625 C 2.285156 -1.457031 1.960938 -1.898438 1.734375 -2.390625 C 1.503906 -2.890625 1.390625 -3.40625 1.390625 -3.9375 L 1.390625 -7.078125 C 1.390625 -8.304688 1.835938 -9.3125 2.734375 -10.09375 C 3.628906 -10.875 4.878906 -11.265625 6.484375 -11.265625 L 6.75 -11.265625 C 8.34375 -11.265625 9.582031 -10.875 10.46875 -10.09375 C 11.363281 -9.3125 11.8125 -8.304688 11.8125 -7.078125 L 11.8125 -5.21875 Z M 10.1875 -6.828125 L 10.1875 -7.078125 C 10.1875 -7.847656 9.898438 -8.46875 9.328125 -8.9375 C 8.753906 -9.414062 7.894531 -9.65625 6.75 -9.65625 L 6.484375 -9.65625 C 5.335938 -9.65625 4.472656 -9.414062 3.890625 -8.9375 C 3.304688 -8.46875 3.015625 -7.847656 3.015625 -7.078125 L 3.015625 -6.828125 Z M 10.1875 -6.828125 "/></g></g></g><g fill="#ffffff" fill-opacity="1"><g transform="translate(570.904917, 62.547758)"><g><path d="M 3.015625 -6.40625 L 3.015625 -4.59375 C 3.015625 -3.625 3.34375 -2.835938 4 -2.234375 C 4.664062 -1.640625 5.492188 -1.34375 6.484375 -1.34375 L 6.75 -1.34375 C 7.875 -1.34375 8.726562 -1.617188 9.3125 -2.171875 C 9.894531 -2.734375 10.1875 -3.539062 10.1875 -4.59375 L 10.1875 -6.40625 C 10.1875 -7.457031 9.894531 -8.257812 9.3125 -8.8125 C 8.726562 -9.375 7.875 -9.65625 6.75 -9.65625 L 6.484375 -9.65625 C 5.347656 -9.65625 4.484375 -9.375 3.890625 -8.8125 C 3.304688 -8.25 3.015625 -7.445312 3.015625 -6.40625 Z M 6.484375 -11.265625 L 6.75 -11.265625 C 8.175781 -11.265625 9.320312 -10.90625 10.1875 -10.1875 L 10.1875 -15.046875 L 11.8125 -15.046875 L 11.8125 0 L 10.1875 0 L 10.1875 -0.796875 C 9.320312 -0.0859375 8.175781 0.265625 6.75 0.265625 L 6.484375 0.265625 C 5.546875 0.265625 4.691406 0.0664062 3.921875 -0.328125 C 3.148438 -0.734375 2.535156 -1.3125 2.078125 -2.0625 C 1.617188 -2.8125 1.390625 -3.65625 1.390625 -4.59375 L 1.390625 -6.40625 C 1.390625 -7.84375 1.828125 -9.007812 2.703125 -9.90625 C 3.585938 -10.8125 4.847656 -11.265625 6.484375 -11.265625 Z M 6.484375 -11.265625 "/></g></g></g><g fill="#ffffff" fill-opacity="1"><g transform="translate(584.104726, 62.547758)"><g><path d="M 3.171875 -11 L 7.421875 -11 L 7.421875 -1.609375 L 11 -1.609375 L 11 0 L 2.203125 0 L 2.203125 -1.609375 L 5.8125 -1.609375 L 5.8125 -9.390625 L 3.171875 -9.390625 Z M 5.6875 -12.953125 C 5.425781 -13.222656 5.296875 -13.550781 5.296875 -13.9375 C 5.296875 -14.320312 5.425781 -14.648438 5.6875 -14.921875 C 5.957031 -15.191406 6.285156 -15.328125 6.671875 -15.328125 C 7.054688 -15.328125 7.382812 -15.191406 7.65625 -14.921875 C 7.9375 -14.648438 8.078125 -14.320312 8.078125 -13.9375 C 8.078125 -13.5625 7.9375 -13.234375 7.65625 -12.953125 C 7.382812 -12.679688 7.054688 -12.546875 6.671875 -12.546875 C 6.285156 -12.546875 5.957031 -12.679688 5.6875 -12.953125 Z M 5.6875 -12.953125 "/></g></g></g><g fill="#ffffff" fill-opacity="1"><g transform="translate(597.304535, 62.547758)"><g><path d="M 6.75 -1.34375 C 7.15625 -1.34375 7.550781 -1.398438 7.9375 -1.515625 C 8.320312 -1.628906 8.644531 -1.769531 8.90625 -1.9375 C 9.164062 -2.101562 9.394531 -2.273438 9.59375 -2.453125 C 9.800781 -2.640625 9.953125 -2.804688 10.046875 -2.953125 C 10.140625 -3.097656 10.1875 -3.195312 10.1875 -3.25 L 10.1875 -5.21875 L 6.484375 -5.21875 C 5.960938 -5.21875 5.492188 -5.171875 5.078125 -5.078125 C 4.660156 -4.992188 4.328125 -4.882812 4.078125 -4.75 C 3.828125 -4.625 3.617188 -4.484375 3.453125 -4.328125 C 3.285156 -4.171875 3.171875 -4.03125 3.109375 -3.90625 C 3.046875 -3.789062 3.015625 -3.695312 3.015625 -3.625 L 3.015625 -3 C 3.015625 -2.863281 3.082031 -2.703125 3.21875 -2.515625 C 3.363281 -2.335938 3.570312 -2.15625 3.84375 -1.96875 C 4.113281 -1.789062 4.476562 -1.640625 4.9375 -1.515625 C 5.40625 -1.398438 5.921875 -1.34375 6.484375 -1.34375 Z M 1.390625 -3.625 C 1.390625 -3.96875 1.488281 -4.316406 1.6875 -4.671875 C 1.882812 -5.023438 2.171875 -5.367188 2.546875 -5.703125 C 2.929688 -6.035156 3.460938 -6.304688 4.140625 -6.515625 C 4.828125 -6.722656 5.609375 -6.828125 6.484375 -6.828125 L 10.1875 -6.828125 L 10.1875 -7.40625 C 10.1875 -8.90625 9.039062 -9.65625 6.75 -9.65625 L 6.484375 -9.65625 C 4.804688 -9.65625 3.734375 -9.28125 3.265625 -8.53125 L 1.890625 -9.390625 C 2.679688 -10.640625 4.210938 -11.265625 6.484375 -11.265625 L 6.75 -11.265625 C 7.550781 -11.265625 8.257812 -11.175781 8.875 -11 C 9.5 -10.832031 9.988281 -10.617188 10.34375 -10.359375 C 10.707031 -10.097656 11.003906 -9.785156 11.234375 -9.421875 C 11.460938 -9.066406 11.613281 -8.726562 11.6875 -8.40625 C 11.769531 -8.082031 11.8125 -7.75 11.8125 -7.40625 L 11.8125 0 L 10.1875 0 L 10.1875 -0.90625 C 9.101562 -0.125 7.957031 0.265625 6.75 0.265625 L 6.484375 0.265625 C 5.609375 0.265625 4.789062 0.144531 4.03125 -0.09375 C 3.28125 -0.332031 2.648438 -0.707031 2.140625 -1.21875 C 1.640625 -1.726562 1.390625 -2.320312 1.390625 -3 Z M 1.390625 -3.625 "/></g></g></g></svg>